<?xml version="1.0" standalone="no"?>
<!DOCTYPE svg PUBLIC "-//W3C//DTD SVG 20010904//EN"
 "http://www.w3.org/TR/2001/REC-SVG-20010904/DTD/svg10.dtd">
<svg version="1.0" xmlns="http://www.w3.org/2000/svg"
 width="1020.000000pt" height="680.000000pt" viewBox="0 0 1020.000000 680.000000"
 preserveAspectRatio="xMidYMid meet">

<g transform="translate(0.000000,680.000000) scale(0.100000,-0.100000)"
fill="#000000" stroke="none">
<path d="M2035 6643 c2 -87 4 -973 4 -1968 l1 -1810 30 -20 c35 -24 39 -56 10
-85 -12 -12 -20 -33 -20 -54 0 -67 -21 -186 -46 -256 -31 -89 -66 -239 -59
-251 4 -5 18 -9 33 -9 15 0 45 -11 68 -23 l40 -24 27 77 c18 50 41 91 67 120
35 39 44 44 94 48 49 4 56 2 78 -23 12 -15 28 -33 33 -39 23 -24 53 -72 60
-96 4 -14 13 -32 20 -40 35 -43 20 -47 -28 -7 -63 53 -177 117 -208 117 -33 0
-15 -15 84 -71 45 -26 81 -53 79 -59 -1 -6 2 -9 7 -6 17 11 78 -52 100 -105
27 -63 26 -146 -1 -141 -23 4 -23 -13 0 -30 21 -15 22 -72 2 -144 -10 -36 -10
-47 1 -60 11 -13 4 -12 -29 5 -23 12 -42 26 -42 31 0 6 -11 10 -24 10 -12 0
-38 11 -57 25 -44 32 -109 64 -131 65 -11 0 -15 6 -11 19 4 15 -4 22 -39 34
l-43 15 43 1 c23 1 42 -3 42 -9 0 -5 9 -10 20 -10 11 0 20 -4 20 -10 0 -5 7
-10 15 -10 9 0 18 -6 21 -14 7 -18 73 -50 82 -40 4 3 0 9 -8 12 -8 3 -33 25
-54 49 -22 23 -47 43 -57 43 -10 0 -24 6 -31 13 -7 8 -20 16 -28 19 -8 4 10 5
40 3 54 -3 168 -26 203 -40 20 -8 23 8 5 22 -7 6 -35 13 -62 17 -27 3 -63 13
-79 21 -17 8 -42 15 -57 15 -14 0 -35 9 -47 19 -11 11 -31 22 -44 24 -13 3 -1
4 26 3 28 -2 82 -15 120 -30 106 -42 116 -42 75 -6 -19 17 -51 39 -70 49 -19
10 -48 26 -65 34 -61 32 -98 47 -106 41 -5 -3 -9 -27 -9 -55 0 -27 -4 -49 -9
-49 -37 0 0 -131 45 -160 16 -11 23 -20 15 -20 -10 0 -7 -8 9 -25 23 -24 47
-35 35 -15 -11 18 58 -1 112 -31 29 -16 59 -29 66 -29 7 0 32 -14 55 -30 57
-42 75 -102 20 -66 -57 38 -297 104 -308 85 -3 -5 -34 -13 -69 -17 -67 -9 -81
-20 -81 -64 0 -25 -4 -28 -35 -28 l-35 0 0 54 c0 30 -3 61 -6 69 -4 11 7 16
43 22 61 9 61 9 55 40 -4 22 -9 25 -48 25 -65 0 -71 19 -86 250 l-12 192 -34
-6 c-19 -3 -63 -2 -98 1 l-64 6 1 56 c0 31 3 74 7 96 6 35 11 40 42 46 19 4
39 14 45 23 8 11 12 393 13 1383 1 752 5 1713 9 2134 5 651 4 766 -8 770 -8 3
-169 2 -359 -2 -190 -4 -594 -10 -898 -14 l-552 -8 0 -1598 c0 -963 4 -1599 9
-1599 5 0 11 3 13 8 2 4 17 18 33 32 l30 25 -27 -31 c-32 -35 -35 -44 -11 -44
18 0 94 76 85 85 -3 3 2 5 11 5 10 0 17 4 17 9 0 9 94 41 119 41 28 0 6 -23
-44 -46 -30 -15 -83 -51 -117 -81 -50 -45 -66 -54 -89 -51 l-29 5 0 -1428 c0
-1351 1 -1428 18 -1432 16 -4 16 -5 0 -6 -12 -1 -18 -9 -18 -26 0 -27 -10 -27
150 -10 19 2 41 -2 49 -8 19 -16 241 -23 241 -8 0 6 9 11 20 11 11 0 20 4 20
9 0 4 -82 11 -182 13 -181 5 -218 11 -218 30 0 7 25 8 68 4 37 -3 160 -10 274
-15 113 -5 210 -11 215 -14 8 -5 598 -12 721 -9 55 2 63 5 71 25 7 18 28 29
93 50 45 14 108 35 138 46 30 11 75 21 100 21 30 0 40 3 30 9 -8 5 -136 11
-284 15 -148 4 -277 11 -287 17 -19 10 -19 10 0 48 19 37 47 54 166 100 19 7
35 23 42 40 9 26 16 29 87 40 56 8 86 18 116 40 39 28 42 28 150 25 110 -3
310 -45 310 -65 0 -5 -20 -9 -45 -9 -73 0 -52 -36 25 -42 43 -3 44 -3 69 -65
25 -60 28 -63 71 -72 119 -25 591 -42 505 -18 -72 20 -73 19 27 56 68 25 73
29 73 56 l0 30 80 3 c44 2 134 -4 200 -13 67 -8 136 -15 155 -15 l35 1 -24 17
c-13 9 -33 27 -45 39 -18 18 -42 24 -117 33 -88 10 -199 44 -199 61 0 10 -39
17 -135 25 -44 3 -92 12 -107 20 -15 8 -37 14 -49 14 -12 0 -51 5 -86 11 -50
9 -63 15 -63 29 0 22 -10 26 -114 40 -44 6 -87 17 -96 25 -9 8 -21 15 -26 15
-5 0 -17 7 -27 15 -13 9 -16 18 -10 30 8 14 11 14 26 -3 14 -16 31 -18 139
-15 68 1 126 2 131 3 4 0 7 6 7 14 0 8 10 22 22 30 12 9 17 16 9 16 -7 0 -28
7 -47 16 -27 13 -34 22 -34 45 0 19 -5 29 -15 29 -19 0 -46 41 -44 66 5 49 -1
74 -18 74 -10 0 -25 5 -33 10 -13 8 -13 11 1 26 15 14 19 14 47 0 17 -9 46
-16 64 -17 18 0 69 -10 113 -22 71 -20 82 -26 107 -62 30 -44 52 -112 62 -190
3 -27 10 -53 15 -58 10 -10 398 -11 478 -1 29 3 50 10 47 15 -3 5 11 9 31 9
22 0 38 6 41 15 4 8 13 15 21 15 9 0 47 9 84 20 98 30 116 62 64 120 -13 14
-27 34 -32 45 -10 19 -10 82 0 91 7 8 119 24 164 24 50 0 93 -18 93 -38 0 -9
-11 -43 -24 -76 -13 -34 -27 -89 -31 -124 -8 -68 -24 -88 -111 -137 -21 -12
-39 -26 -41 -32 -2 -6 31 -34 74 -63 63 -41 84 -50 110 -46 21 3 38 -1 53 -14
16 -14 46 -19 151 -25 127 -7 131 -8 140 -32 5 -14 8 -31 7 -39 -2 -7 5 -19
16 -27 34 -25 9 -50 -127 -130 -128 -76 -133 -78 -181 -72 -27 3 -61 12 -75
19 -14 8 -43 16 -64 19 -20 3 -43 9 -50 15 -7 6 -41 14 -77 17 -36 4 -88 13
-117 20 -28 8 -89 16 -135 20 -46 3 -92 8 -103 10 -14 2 -27 -7 -42 -31 -27
-42 -29 -54 -8 -54 20 0 78 -29 87 -44 5 -8 -41 -12 -160 -16 -140 -4 -167 -7
-167 -20 0 -13 33 -15 225 -18 267 -3 283 -5 299 -36 7 -13 25 -29 39 -35 56
-26 4 -31 -243 -21 -138 5 -262 10 -277 10 -24 0 -27 4 -30 38 -3 37 -4 37
-43 35 -187 -12 -594 -23 -624 -18 -28 5 -43 1 -61 -13 -14 -10 -78 -47 -143
-81 -87 -47 -124 -61 -142 -57 -20 5 -27 1 -40 -24 -12 -24 -41 -42 -140 -89
-170 -81 -191 -87 -215 -66 -10 9 -20 34 -22 54 -2 24 -8 36 -18 36 -9 0 -14
-7 -12 -17 2 -10 -2 -18 -9 -18 -6 0 -9 -7 -6 -14 8 -19 -66 -31 -126 -21
-101 17 -212 22 -235 12 -17 -8 -25 -8 -30 0 -4 6 -16 13 -27 16 -18 4 -18 5
3 6 15 1 22 7 22 20 0 11 6 22 12 25 7 4 -9 4 -35 1 -32 -3 -58 0 -78 10 -18
10 -52 15 -87 14 -31 -1 -77 3 -102 9 -25 5 -155 15 -290 22 -135 6 -276 18
-315 26 -117 23 -105 53 -105 -256 l0 -270 903 0 902 0 1 155 c2 196 10 265
32 271 9 3 32 13 51 22 21 10 58 17 95 17 l61 0 3 -232 2 -233 2487 0 c1367 0
2484 2 2481 5 -5 6 -112 34 -203 55 -22 5 -92 23 -155 39 -101 25 -115 32
-118 51 -5 32 12 39 78 33 52 -5 59 -3 70 17 11 20 17 22 68 15 32 -3 65 -8
75 -11 31 -9 18 -24 -22 -24 -22 0 -43 -4 -46 -10 -3 -5 0 -10 8 -10 8 0 39
-11 69 -25 30 -14 108 -36 174 -49 65 -14 137 -31 159 -39 22 -8 65 -18 95
-21 30 -4 67 -12 81 -17 14 -5 63 -9 110 -7 l84 3 -80 38 c-44 21 -123 59
-175 86 -52 26 -121 58 -152 70 -32 13 -63 30 -70 38 -21 26 22 50 100 58 37
3 126 13 197 21 72 9 220 20 330 25 192 9 378 24 324 28 -15 0 -33 8 -40 17
-11 14 -10 19 9 34 33 27 152 33 447 21 226 -9 285 -15 455 -46 327 -60 739
-144 760 -155 10 -6 31 -25 45 -44 l25 -33 138 -7 c75 -4 183 -8 240 -10 l102
-4 0 310 0 309 -119 -7 c-82 -5 -120 -3 -125 4 -10 17 38 25 104 18 37 -4 75
-2 100 5 74 22 45 32 -72 24 -134 -9 -243 -9 -266 0 -40 15 21 25 162 25 141
0 216 11 216 32 0 4 -51 9 -112 9 -120 1 -121 1 29 30 70 14 75 26 10 24 -56
-1 -151 11 -106 14 29 1 146 38 169 53 10 6 4 8 -20 3 -97 -16 -353 -28 -345
-15 3 5 36 10 73 10 37 0 85 5 107 10 80 20 115 33 115 42 0 5 -4 7 -8 4 -4
-3 -55 -7 -113 -10 -57 -3 -140 -8 -184 -11 -52 -4 -75 -3 -66 3 7 5 57 13
110 17 53 4 121 13 151 21 141 36 204 69 76 39 -37 -8 -104 -15 -149 -15 -45
0 -136 -9 -202 -20 -147 -24 -153 -24 -90 2 32 13 99 25 190 34 129 13 169 24
152 40 -15 15 -292 -22 -390 -52 -16 -5 -17 -3 -6 14 16 25 69 39 179 47 89 7
214 31 240 46 9 6 -25 7 -90 4 -148 -9 -175 -12 -265 -35 -84 -21 -116 -14
-72 15 17 11 62 20 129 26 56 5 128 14 158 21 l55 13 -103 3 c-89 2 -116 -1
-190 -24 -48 -15 -95 -34 -105 -42 -27 -24 -32 -6 -5 21 39 39 61 47 185 63
133 16 222 34 228 44 3 4 -46 6 -108 3 -129 -5 -266 -35 -316 -69 -19 -13 -37
-22 -39 -20 -8 9 30 54 56 66 37 17 130 39 169 40 48 0 138 23 119 30 -28 9
-189 -6 -240 -24 -62 -21 -85 -33 -113 -59 -35 -31 -41 -11 -7 24 46 49 78 60
237 84 82 13 154 28 160 34 7 7 -4 9 -39 6 -27 -2 -88 -7 -135 -9 -95 -5 -198
-40 -250 -83 -22 -19 -29 -21 -29 -10 0 17 48 60 91 82 27 14 124 37 229 55
39 6 33 7 -40 9 -48 0 -105 -5 -131 -13 -58 -18 -149 -64 -149 -75 0 -5 -7
-12 -15 -15 -29 -11 17 54 56 81 34 22 123 44 289 71 53 9 52 9 -40 10 -153 2
-243 -25 -313 -93 -44 -43 -57 -31 -19 17 44 58 135 97 267 117 l60 8 -69 2
c-119 2 -211 -32 -276 -102 -23 -24 -36 -18 -21 11 33 62 135 113 260 131 107
14 101 25 -11 18 -75 -4 -111 -11 -153 -31 -54 -24 -135 -94 -135 -116 0 -5
-11 -10 -25 -10 -18 0 -25 5 -25 19 0 13 5 18 18 15 12 -4 29 10 54 44 43 56
121 99 213 118 52 10 55 12 23 13 -46 1 -134 -17 -170 -35 -15 -8 -53 -39 -84
-69 -62 -61 -84 -67 -38 -10 16 19 41 50 56 69 32 39 109 71 219 91 l74 13
-68 1 c-106 2 -229 -48 -275 -111 -7 -10 -17 -18 -23 -18 -19 0 -8 26 29 66
38 43 150 103 193 105 13 0 18 3 11 6 -19 7 -112 -17 -152 -40 -19 -11 -48
-32 -63 -46 -23 -21 -29 -23 -37 -11 -12 20 -28 3 -32 -35 -4 -37 -22 -39 -26
-3 -2 16 5 39 18 56 12 16 20 40 18 53 -3 23 -4 22 -25 -11 -17 -26 -23 -31
-28 -19 -6 16 7 60 25 82 46 56 72 79 113 97 26 11 47 23 47 25 0 10 -78 -20
-105 -40 -16 -12 -43 -31 -60 -41 l-30 -19 19 30 c10 17 30 43 45 59 14 16 20
26 14 22 -8 -4 -13 -2 -13 7 0 21 58 59 101 64 35 5 38 8 33 29 -5 17 3 32 29
59 24 25 37 32 40 23 4 -9 14 -4 31 17 l26 30 0 -33 0 -33 30 21 30 21 0 -21
c0 -16 4 -20 19 -15 14 4 21 0 26 -14 4 -13 12 -17 25 -14 12 3 22 -1 26 -11
3 -9 15 -16 25 -16 11 0 22 -7 26 -16 3 -8 12 -13 19 -10 7 3 20 -1 28 -9 8
-8 22 -15 31 -15 9 0 19 -9 22 -20 3 -11 9 -17 14 -14 5 3 28 -10 52 -28 52
-41 87 -61 94 -54 3 3 -10 27 -29 53 -32 44 -64 123 -50 123 3 0 14 -7 24 -17
17 -15 18 -15 18 1 0 9 -6 29 -14 44 -26 53 -84 238 -91 292 -10 86 -50 225
-79 274 -14 25 -26 52 -26 61 0 9 -6 26 -12 38 -7 12 -18 47 -24 77 -7 30 -24
88 -39 129 -15 41 -24 83 -21 96 3 12 -3 39 -14 60 -24 46 -26 75 -6 75 8 0
22 8 32 17 16 16 19 14 64 -34 26 -28 63 -81 83 -116 59 -107 124 -287 137
-377 8 -55 55 -180 110 -296 35 -73 106 -152 123 -135 7 7 6 16 -6 29 -9 10
-17 23 -17 28 0 5 7 0 15 -10 11 -14 18 -17 26 -9 7 7 3 18 -15 36 -14 14 -26
33 -26 41 0 8 -8 17 -18 20 -35 12 -106 156 -103 211 1 17 3 50 4 75 2 25 10
57 20 69 l16 24 36 -27 c19 -15 35 -31 35 -35 0 -10 70 -31 104 -31 l26 0 0
2055 0 2055 -373 0 -372 0 -10 -22 c-6 -13 -19 -23 -30 -23 -13 0 -21 8 -23
23 -3 22 -6 22 -143 22 l-140 0 6 -182 c2 -101 7 -383 10 -628 8 -688 15
-1119 20 -1182 l4 -58 -37 16 c-55 23 -145 23 -171 0 -12 -11 -21 -15 -21 -11
0 5 -5 4 -12 -3 -7 -7 -24 -12 -39 -12 -15 0 -29 -5 -31 -11 -2 -7 -19 -13
-38 -14 -50 -3 -100 -16 -100 -26 0 -5 -7 -9 -15 -9 -9 0 -15 -9 -15 -24 0
-27 -14 -41 -52 -50 -16 -3 -28 -11 -28 -16 0 -11 -79 -65 -95 -65 -17 0 -101
-91 -114 -123 -11 -26 -10 -35 2 -59 8 -15 23 -47 32 -70 l18 -42 -47 -45
c-49 -48 -56 -73 -37 -132 5 -16 12 -48 14 -71 5 -39 4 -42 -14 -32 -20 10
-28 -4 -9 -16 6 -3 10 -17 10 -29 0 -17 8 -25 33 -32 54 -16 61 -47 37 -151
-12 -48 -25 -95 -30 -104 -11 -20 6 -39 35 -39 25 0 45 -18 45 -41 0 -17 50
-49 77 -49 7 0 14 -9 15 -20 0 -11 1 -26 2 -32 1 -8 -8 -12 -21 -10 -37 5 -27
-22 14 -40 32 -15 39 -15 57 -2 11 7 30 14 41 14 12 0 30 7 41 15 25 19 38 19
30 -1 -5 -14 0 -15 41 -9 27 4 80 18 120 31 39 13 93 24 119 24 32 0 54 6 68
19 42 37 226 59 226 27 0 -8 -4 -18 -10 -21 -15 -10 -12 -35 5 -35 8 0 15 -6
15 -12 0 -8 -16 -13 -45 -14 -35 -1 -46 3 -50 18 -7 21 -28 24 -47 5 -7 -7
-21 -16 -30 -20 -15 -5 -16 -3 -6 19 6 13 9 26 6 29 -3 3 -36 -10 -74 -30 -38
-19 -76 -35 -84 -35 -8 0 -24 -7 -34 -15 -14 -11 -38 -13 -95 -9 l-76 6 25
-21 c14 -11 31 -19 38 -16 7 3 24 -7 37 -21 21 -23 45 -19 30 6 -4 6 7 10 25
10 l32 0 -54 -60 c-51 -58 -118 -155 -118 -172 0 -4 9 -8 20 -8 25 0 25 -15 0
-40 -16 -16 -24 -18 -50 -9 -36 13 -62 6 -54 -16 3 -8 2 -15 -4 -15 -6 0 -12
6 -15 13 -6 16 -55 -36 -62 -66 -4 -15 7 -51 32 -102 44 -93 143 -202 193
-212 42 -8 53 -35 55 -125 2 -64 -1 -80 -16 -94 -11 -10 -19 -23 -19 -31 0 -7
-4 -13 -10 -13 -5 0 -10 -9 -10 -20 0 -15 7 -20 25 -20 18 0 25 5 25 20 0 11
4 20 9 20 14 0 24 -76 13 -96 -14 -25 -42 -27 -42 -3 0 10 -7 19 -15 19 -8 0
-15 -9 -15 -20 0 -11 4 -20 9 -20 5 0 12 -7 15 -16 3 -8 2 -13 -2 -10 -14 8
-52 -24 -52 -44 0 -29 -11 -50 -26 -50 -11 0 -14 -11 -12 -41 2 -34 -3 -44
-28 -64 -16 -13 -39 -24 -51 -25 -13 0 -30 -11 -39 -25 -37 -57 -114 -12 -114
66 0 28 -7 44 -25 62 l-25 23 26 -1 c15 0 29 5 31 10 3 11 -77 55 -101 55 -32
0 -25 77 7 82 11 2 24 10 30 19 14 23 0 70 -23 76 -11 3 -20 9 -20 14 0 5 -7
9 -15 9 -8 0 -15 -7 -15 -15 0 -8 6 -15 14 -15 14 0 28 -48 19 -63 -3 -4 -12
-2 -20 5 -9 7 -30 17 -47 23 -35 11 -45 45 -24 81 51 84 58 105 48 124 -12 22
-41 40 -64 40 -19 0 -21 -31 -3 -49 10 -10 9 -15 -5 -25 -10 -7 -15 -16 -11
-19 3 -4 -3 -7 -15 -7 -27 0 -45 56 -32 100 10 34 9 35 -45 44 -22 4 -53 19
-70 33 -21 17 -24 23 -10 18 11 -4 49 -16 85 -26 36 -11 89 -31 118 -45 l54
-25 -7 23 c-4 13 -15 37 -25 53 -30 50 -51 179 -44 262 6 66 5 73 -11 73 -10
0 -24 -8 -31 -17 -9 -13 -13 -14 -14 -4 0 7 11 22 25 33 23 18 34 48 18 48 -5
0 -8 44 -9 98 0 96 0 97 -25 97 -14 0 -23 -5 -21 -13 3 -16 -42 -36 -63 -28
-13 5 -15 9 -6 20 8 10 8 16 -1 23 -14 11 -38 20 -52 21 -5 0 -12 5 -16 12 -4
6 -16 12 -27 12 -11 1 -25 8 -32 15 -10 11 -8 13 13 7 32 -8 36 14 7 40 -17
16 -20 16 -35 0 -10 -9 -14 -24 -11 -35 4 -11 2 -19 -5 -19 -6 0 -9 4 -6 9 3
5 -1 14 -9 21 -10 9 -15 9 -15 1 0 -6 -6 -11 -14 -11 -8 0 -17 -6 -19 -12 -4
-10 -6 -10 -6 0 -1 6 -10 12 -21 12 -11 0 -20 4 -20 9 0 5 -7 11 -15 15 -8 3
-14 0 -12 -6 1 -6 -4 -13 -12 -16 -8 -3 -11 0 -7 7 9 13 4 14 -28 2 -18 -8
-34 -5 -63 9 -30 15 -33 19 -16 20 12 0 25 5 28 11 14 21 -5 21 -41 0 -29 -17
-39 -19 -45 -9 -6 9 -13 1 -23 -24 -20 -47 -32 -54 -46 -28 -6 12 -18 19 -25
16 -9 -3 -12 0 -8 10 3 7 0 14 -6 14 -23 0 -27 1 -49 16 -13 9 -27 13 -30 9
-11 -10 -11 -76 -1 -69 6 3 21 3 35 0 18 -5 24 -13 24 -35 0 -26 -3 -29 -40
-33 -28 -2 -40 0 -40 9 0 7 -11 13 -24 13 -14 0 -40 10 -60 23 -35 22 -45 37
-26 37 6 0 10 5 10 11 0 6 -9 8 -20 4 -12 -4 -26 0 -36 9 -22 22 -37 20 -31
-4 3 -11 1 -18 -4 -14 -5 3 -9 -6 -9 -20 0 -13 -6 -26 -12 -29 -10 -4 -10 -7
0 -18 10 -11 12 -10 12 4 0 27 24 20 44 -14 22 -38 15 -47 -27 -30 -43 17 -62
18 -60 4 2 -7 -4 -13 -12 -13 -20 0 -19 -11 2 -49 16 -28 16 -33 3 -41 -8 -5
-25 -10 -37 -10 -13 0 -23 -5 -23 -11 0 -6 -7 -9 -15 -5 -8 3 -25 1 -37 -3
-22 -9 -22 -9 6 -16 29 -8 86 -57 86 -74 0 -14 -36 -41 -54 -41 -14 0 -15 4
-6 20 8 16 8 20 -4 20 -7 0 -17 -7 -20 -16 -3 -8 -11 -12 -17 -8 -7 4 -21 7
-33 8 -16 1 -22 8 -24 34 -3 27 0 32 17 32 17 0 21 6 21 30 0 17 9 39 19 49
19 19 19 20 -35 16 -49 -3 -53 -1 -42 13 11 13 10 14 -15 8 -18 -4 -26 -3 -23
3 3 5 1 22 -4 37 -9 22 -8 29 5 36 22 13 18 27 -7 20 -14 -3 -19 -1 -14 6 3 6
15 9 25 7 27 -5 54 29 53 65 0 17 4 28 9 25 5 -4 9 0 9 8 0 8 21 36 47 61 25
25 42 46 37 46 -19 1 69 28 114 35 38 6 94 26 110 40 2 2 -1 13 -8 25 -18 33
-4 57 35 62 19 2 35 0 35 -5 0 -5 7 -3 17 4 13 11 17 11 20 2 3 -7 20 -13 38
-13 19 0 37 -4 40 -10 9 -15 25 -12 25 5 0 11 5 13 18 6 34 -17 108 -34 155
-35 26 0 47 -4 47 -8 0 -5 9 -8 19 -8 10 0 21 -7 25 -15 3 -8 12 -15 20 -15
12 0 14 31 9 213 -3 116 -8 262 -12 322 l-6 110 -30 -1 c-16 0 -210 -4 -430
-8 -331 -7 -403 -6 -412 6 -6 8 -13 122 -16 305 -5 246 -4 294 8 306 11 12 72
16 302 21 158 4 351 8 428 10 l140 4 0 39 c1 21 4 43 8 50 12 19 84 22 651 28
297 2 543 8 547 12 4 5 1 334 -7 733 -7 399 -13 805 -14 903 l0 177 -605 0
-605 0 0 -44 c0 -25 -5 -48 -12 -52 -14 -9 -16 -9 -329 -19 l-247 -8 -6 30
c-4 17 -6 34 -5 39 1 5 1 19 0 32 l-1 22 -636 0 c-540 0 -635 -2 -625 -14 14
-16 4 -121 -13 -135 -6 -5 -139 -10 -296 -12 l-285 -4 -3 66 c-2 46 1 69 10
77 8 6 43 13 78 15 36 2 -241 4 -614 5 l-679 2 7 -367 c3 -203 7 -516 7 -696
l1 -328 32 6 c17 4 45 11 61 15 17 5 71 13 120 18 89 8 91 8 149 -22 32 -17
60 -36 63 -42 2 -7 24 -24 47 -39 25 -16 52 -44 65 -69 34 -66 62 -111 72
-114 5 -2 9 -9 9 -15 0 -24 45 -107 58 -107 7 0 10 -4 7 -10 -3 -5 -1 -10 5
-10 7 0 10 -7 6 -15 -3 -8 0 -14 7 -12 7 1 11 -7 10 -21 -2 -13 4 -25 12 -28
8 -4 15 -15 15 -25 0 -10 5 -19 10 -19 15 0 12 -74 -5 -96 -8 -10 -14 -28 -15
-39 0 -16 2 -17 10 -5 8 12 10 12 16 -4 4 -11 2 -21 -7 -27 -19 -12 -32 -11
-24 1 14 23 -14 8 -29 -16 -13 -19 -17 -43 -14 -103 l3 -78 45 0 c25 0 50 4
57 9 8 6 13 2 18 -12 4 -12 12 -19 18 -17 7 2 20 0 31 -5 13 -7 16 -7 12 1 -4
6 1 12 11 13 32 2 38 4 60 16 30 17 39 -11 10 -32 -21 -15 -21 -15 13 -10 19
2 51 9 70 14 46 13 50 13 50 -5 0 -9 -20 -18 -61 -27 -50 -10 -57 -14 -38 -19
23 -7 23 -7 2 -8 -12 -1 -25 -5 -28 -11 -3 -5 0 -7 8 -4 8 3 17 -2 20 -10 4
-9 2 -16 -3 -16 -6 0 -10 -5 -10 -11 0 -5 5 -7 12 -3 7 5 8 3 3 -5 -4 -7 1
-22 13 -34 28 -31 42 -62 41 -89 l0 -23 -10 24 c-5 13 -18 32 -29 41 -11 10
-20 21 -20 26 -1 5 -15 25 -33 45 -29 33 -35 36 -62 28 -38 -11 -98 -67 -91
-85 3 -8 1 -14 -4 -14 -9 0 -26 -39 -22 -52 1 -5 -1 -7 -6 -6 -4 1 -23 -1 -44
-5 l-36 -8 10 -37 c6 -20 19 -49 30 -64 16 -24 17 -28 4 -28 -9 0 -16 5 -16
12 0 6 -3 9 -6 6 -3 -4 1 -35 10 -70 8 -34 14 -70 14 -78 -1 -8 2 -33 6 -55 4
-25 3 -35 -2 -26 -6 8 -8 -6 -6 -40 3 -49 2 -52 -10 -30 -12 23 -13 21 -20
-29 -8 -57 -24 -102 -49 -135 -14 -19 -15 -18 -30 15 -8 19 -24 44 -36 54 -11
11 -21 26 -21 35 0 12 -3 12 -12 3 -35 -35 -46 12 -49 208 -1 52 -4 99 -7 103
-2 5 -17 -13 -32 -40 -19 -34 -29 -69 -34 -120 -11 -125 -24 -132 -84 -46 -29
41 -28 52 9 65 20 7 28 15 25 25 -3 8 -6 17 -6 19 0 2 -4 4 -10 4 -5 0 -10 -7
-10 -16 0 -13 -2 -13 -17 2 -10 10 -13 19 -8 21 33 12 105 66 105 79 0 9 -5
12 -12 8 -7 -5 -2 5 10 21 l23 29 -29 26 c-28 23 -30 31 -36 115 -4 52 -2 105
4 124 5 19 7 37 5 40 -3 2 -25 6 -49 7 -24 1 -61 7 -82 13 -22 6 -68 11 -104
11 -36 0 -70 4 -76 8 -6 4 -14 34 -18 67 -4 33 -11 62 -16 63 -24 8 -8 32 20
32 17 0 32 0 34 1 3 0 26 20 52 45 26 24 51 44 55 44 4 0 21 12 38 26 22 19
38 24 55 20 17 -4 34 3 61 24 20 16 45 32 55 35 10 3 21 12 23 19 4 11 15 12
42 6 19 -4 41 -12 48 -17 7 -5 41 -22 76 -37 57 -24 66 -25 79 -12 13 13 8 18
-39 41 -72 36 -89 53 -89 86 0 15 -5 31 -11 34 -6 4 -8 13 -5 21 3 8 2 14 -2
14 -12 0 -34 62 -35 93 0 16 -6 31 -14 34 -11 4 -12 8 -3 13 9 5 6 10 -9 15
-12 3 -21 15 -21 26 0 10 -18 36 -39 57 -29 28 -37 42 -30 53 18 29 10 39 -35
39 -25 0 -48 5 -51 10 -3 6 -20 10 -38 10 -29 0 -30 -1 -11 -15 10 -8 15 -15
9 -15 -5 0 6 -11 25 -23 45 -28 49 -51 11 -68 -29 -13 -34 -33 -6 -22 20 7 47
-16 40 -35 -3 -8 2 -20 11 -27 23 -16 11 -50 -14 -40 -44 17 -81 16 -127 -4
-66 -29 -69 -19 -3 12 43 21 48 26 28 27 -23 1 -23 2 -5 10 11 5 29 9 40 9 17
1 17 -1 5 -9 -13 -9 -13 -10 0 -10 8 0 21 4 29 9 10 6 5 14 -20 33 -52 39 -87
41 -129 8 -19 -15 -53 -33 -75 -40 -22 -7 -35 -15 -29 -17 6 -2 -10 -26 -36
-54 -51 -54 -109 -163 -140 -262 -33 -102 -55 -395 -41 -542 6 -69 8 -176 5
-251 -7 -133 -2 -183 16 -154 11 19 15 2 35 -189 10 -85 28 -198 41 -250 28
-113 28 -117 9 -101 -18 15 -19 7 -4 -22 6 -11 12 -37 13 -58 1 -20 12 -50 24
-65 20 -25 28 -45 19 -45 -23 0 -97 35 -97 47 0 8 -4 11 -10 8 -5 -3 -10 1
-10 11 0 21 -59 126 -77 137 -7 4 -17 24 -23 45 -5 20 -14 44 -20 52 -9 13
-11 13 -19 1 -7 -11 -13 -6 -24 21 -8 19 -18 49 -22 66 -7 36 -19 47 -37 36
-25 -16 -50 -10 -60 12 -6 13 -21 30 -33 38 -20 13 -23 26 -30 135 -6 109 -9
121 -25 121 -17 0 -19 7 -15 85 6 98 8 96 -87 63 -123 -42 -234 -112 -244
-154 -4 -16 -12 -24 -23 -22 -9 1 -22 -1 -28 -5 -7 -5 -13 -4 -13 2 0 5 4 11
8 13 15 6 73 85 76 105 5 22 104 163 116 163 4 0 27 25 51 55 24 30 56 60 71
66 15 6 28 18 28 25 0 8 9 14 20 14 11 0 20 5 20 10 0 6 4 10 10 10 15 0 50
33 50 46 0 7 4 14 10 16 5 2 21 50 35 107 23 93 24 106 11 113 -24 14 -19 47
9 60 14 6 25 17 25 24 0 7 2 19 5 26 4 10 -3 14 -22 13 -24 0 -28 4 -31 31 -2
21 2 33 12 37 17 7 46 -17 46 -36 0 -22 20 18 20 40 0 13 12 62 26 110 14 49
34 119 45 156 34 121 85 204 182 300 37 36 39 41 39 105 1 37 0 358 -1 715
l-3 647 -1058 0 -1059 0 4 -157z m7413 55 c19 -19 14 -46 -9 -59 -17 -9 -25
-8 -37 4 -14 14 -13 18 2 41 18 29 27 31 44 14z m-5630 -69 c2 -19 -2 -28 -17
-32 -24 -6 -31 0 -31 28 0 44 43 47 48 4z m-1378 -14 c16 -19 3 -55 -20 -55
-23 0 -36 36 -20 55 7 8 16 15 20 15 4 0 13 -7 20 -15z m7008 -74 c-2 -18 -10
-27 -26 -29 -30 -4 -38 22 -17 54 13 21 19 23 31 13 8 -7 14 -24 12 -38z
m-5633 -21 c8 -26 -1 -40 -26 -40 -35 0 -23 55 13 59 4 1 9 -8 13 -19z m-1377
-34 c4 -21 -14 -37 -35 -29 -14 5 -18 35 -6 47 12 12 38 1 41 -18z m3491 -15
c9 -6 12 -18 7 -36 -11 -43 8 -56 70 -49 75 9 87 -2 69 -64 -16 -53 -11 -63
36 -67 43 -3 62 -30 35 -51 -11 -8 -28 -14 -37 -14 -20 0 -29 -21 -27 -68 1
-41 -7 -49 -59 -58 -40 -6 -42 -5 -49 22 -10 43 -33 64 -69 64 -36 0 -69 -29
-59 -53 4 -12 -1 -18 -19 -22 -49 -13 -62 -4 -67 50 -7 62 -16 78 -43 71 -25
-6 -48 10 -40 30 6 16 59 19 68 4 9 -15 35 8 35 31 0 10 -9 33 -20 52 -16 28
-18 40 -10 61 9 25 12 26 58 20 63 -8 97 7 80 35 -9 15 -9 23 1 35 15 18 21
19 40 7z m3529 -44 c3 -27 -4 -32 -32 -21 -16 6 -22 35 -9 48 15 14 38 0 41
-27z m-5638 -43 c0 -19 -5 -24 -25 -24 -20 0 -25 5 -25 24 0 15 7 26 18 29 25
5 32 -1 32 -29z m1650 16 c64 -33 110 -120 110 -210 0 -98 -87 -220 -157 -220
-39 0 -103 39 -130 78 -12 18 -27 58 -34 88 -28 127 56 281 154 284 10 0 35
-9 57 -20z m-3022 -43 c4 -20 -25 -34 -40 -19 -15 15 -1 44 19 40 10 -2 19
-11 21 -21z m1370 -90 c3 -22 -1 -27 -18 -27 -23 0 -35 22 -26 46 10 25 41 12
44 -19z m-1383 -18 c0 -17 -6 -24 -20 -24 -23 0 -33 34 -13 46 20 13 33 5 33
-22z m7025 -64 c0 -18 -5 -25 -19 -25 -24 0 -33 13 -25 34 10 27 44 20 44 -9z
m-5636 -11 c11 -30 6 -53 -14 -59 -28 -9 -40 2 -40 35 0 38 42 56 54 24z
m-1374 -54 c0 -19 -25 -34 -41 -24 -13 7 -11 38 3 52 15 15 38 -2 38 -28z
m1370 -61 c18 -33 9 -64 -20 -64 -20 0 -26 6 -28 28 -3 27 12 57 29 57 5 0 13
-9 19 -21z m-1377 -31 c14 -21 2 -48 -22 -48 -24 0 -34 25 -20 51 11 22 27 21
42 -3z m1377 -113 c0 -26 -29 -42 -42 -23 -11 18 -10 25 8 42 20 20 34 12 34
-19z m1004 9 c8 -22 8 -24 -8 -24 -18 0 -29 16 -21 30 9 15 22 12 29 -6z
m1081 -76 c24 -45 28 -61 19 -75 -6 -9 -105 -64 -220 -122 -115 -57 -204 -106
-199 -108 6 -1 87 24 180 58 291 104 489 171 517 176 20 4 30 -1 42 -18 36
-56 113 -319 93 -319 -2 0 -95 -32 -208 -71 -112 -39 -298 -104 -414 -144
-115 -40 -262 -92 -325 -115 -172 -63 -188 -67 -204 -50 -8 8 -36 80 -62 158
-36 110 -45 148 -37 160 5 9 57 34 114 54 57 20 108 38 112 40 5 2 -3 24 -17
48 -28 49 -33 82 -13 97 13 11 84 49 287 156 69 36 154 81 190 100 91 48 108
45 145 -25z m-2087 -20 c28 -28 3 -85 -32 -72 -27 10 -15 84 14 84 3 0 11 -5
18 -12z m-1388 -47 c0 -5 -7 -11 -15 -15 -9 -3 -15 0 -15 9 0 8 7 15 15 15 8
0 15 -4 15 -9z m2336 -15 c3 -8 1 -23 -4 -33 -7 -12 -7 -25 -1 -35 13 -23 -2
-30 -50 -22 -41 7 -56 29 -27 40 8 3 19 19 25 35 11 31 47 41 57 15z m165 -34
c13 -33 -4 -52 -47 -52 -24 0 -34 5 -34 15 0 8 4 15 9 15 5 0 14 13 21 29 14
35 36 32 51 -7z m4527 -25 c2 -12 -3 -17 -17 -17 -12 0 -21 6 -21 13 0 31 32
34 38 4z m-5628 -37 c0 -29 -19 -43 -45 -34 -21 8 -19 61 2 73 24 13 43 -4 43
-39z m5628 -89 c4 -23 -11 -41 -35 -41 -18 0 -26 39 -12 56 17 21 43 13 47
-15z m-5640 -28 c-3 -31 -32 -43 -41 -18 -9 23 3 45 25 45 15 0 19 -6 16 -27z
m-2 -130 c-10 -10 -19 5 -10 18 6 11 8 11 12 0 2 -7 1 -15 -2 -18z m3242 -27
c2 -10 -2 -22 -8 -26 -7 -5 -10 -15 -7 -24 5 -12 20 -16 60 -16 40 0 59 -5 75
-20 24 -23 27 -35 12 -45 -15 -9 -12 -62 4 -68 8 -3 20 1 27 9 17 20 39 0 39
-37 0 -33 -15 -44 -52 -40 -27 2 -28 1 -28 -44 0 -70 -11 -83 -67 -81 -48 1
-48 1 -45 33 3 27 -1 35 -23 45 -45 20 -124 -33 -85 -57 6 -3 10 -13 10 -21 0
-10 -13 -14 -47 -14 -61 0 -83 20 -83 76 0 47 -11 59 -55 59 -24 0 -31 5 -33
23 -5 35 14 51 54 45 l34 -6 0 52 c0 77 11 91 70 91 57 0 67 10 45 44 -24 36
-11 47 48 44 41 -2 53 -7 55 -22z m-3238 -81 c0 -18 -5 -25 -20 -25 -15 0 -20
7 -20 25 0 18 5 25 20 25 15 0 20 -7 20 -25z m4 -100 c8 -22 -4 -46 -23 -43
-9 2 -17 15 -19 31 -3 21 1 27 16 27 11 0 22 -7 26 -15z m5644 -117 c-2 -15
-10 -23 -23 -23 -13 0 -21 8 -23 23 -3 18 1 22 23 22 22 0 26 -4 23 -22z
m-5642 -10 c8 -27 -22 -54 -43 -37 -14 12 -18 41 -6 52 14 15 42 6 49 -15z
m738 -34 c9 -3 16 -12 16 -20 0 -8 7 -14 15 -14 8 0 15 -4 15 -10 0 -11 -42
-12 -80 -1 l-25 7 23 8 c15 5 21 13 18 22 -6 16 -4 17 18 8z m-304 -51 c-21
-27 -98 -78 -106 -70 -7 7 96 97 112 97 13 0 11 -5 -6 -27z m240 8 c0 -10 -54
-31 -81 -31 -22 0 -24 11 -7 28 14 14 88 16 88 3z m4970 -26 c0 -20 -5 -25
-25 -25 -18 0 -25 5 -25 18 0 24 8 32 32 32 13 0 18 -7 18 -25z m-5645 -15 c8
-26 -1 -40 -26 -40 -14 0 -19 7 -19 30 0 23 5 30 19 30 11 0 22 -9 26 -20z
m-3179 -11 c11 -18 4 -732 -7 -746 -16 -18 -479 -19 -497 -1 -19 19 -17 721 2
737 9 7 94 14 237 19 227 7 255 6 265 -9z m3661 -4 c17 -18 18 -17 -21 -33
-16 -7 -26 -15 -23 -18 6 -7 236 32 272 46 65 25 95 9 100 -52 3 -35 -20 -41
-61 -16 -24 14 -38 16 -56 9 -13 -5 -50 -12 -81 -16 -31 -4 -57 -11 -57 -15 0
-4 -19 -13 -42 -19 -24 -7 -54 -19 -68 -27 -24 -14 -23 -14 15 -8 30 4 36 3
25 -5 -8 -6 -21 -11 -28 -11 -7 0 -20 -6 -27 -14 -7 -7 -41 -19 -76 -25 -76
-15 -88 -8 -70 46 7 21 13 49 14 61 2 27 32 51 109 87 63 29 56 29 75 10z
m-479 -111 c2 -13 -4 -24 -13 -28 -24 -9 -35 1 -35 30 0 21 4 25 23 22 13 -2
23 -11 25 -24z m2360 -281 c2 -264 0 -303 -14 -317 -14 -14 -65 -16 -433 -16
-311 0 -420 3 -429 12 -14 14 -18 584 -4 605 10 17 66 19 497 18 l380 0 3
-302z m3277 277 c0 -7 -5 -15 -10 -17 -6 -2 -11 6 -11 17 0 11 5 19 11 17 5
-2 10 -10 10 -17z m-4945 -30 c-36 -11 -52 -11 -45 0 3 6 21 10 38 9 31 -1 31
-1 7 -9z m-105 -50 c-28 -12 -37 -12 -30 0 3 6 16 10 28 9 21 0 21 -1 2 -9z
m5051 -177 c-3 -3 -12 2 -20 10 -12 11 -13 16 -3 20 13 4 33 -21 23 -30z
m-7026 12 c0 -8 -9 -15 -20 -15 -20 0 -26 11 -13 23 12 13 33 7 33 -8z m6244
-43 c-6 -4 -13 -15 -17 -24 -7 -20 -51 -25 -45 -5 3 6 15 18 29 24 26 14 51
18 33 5z m796 -53 c0 -11 -4 -17 -10 -14 -5 3 -10 15 -10 26 0 11 5 17 10 14
6 -3 10 -15 10 -26z m-7042 -37 c3 -17 -2 -22 -17 -22 -14 0 -21 6 -21 18 0
38 33 41 38 4z m1847 -92 c3 -5 1 -10 -4 -10 -6 0 -11 5 -11 10 0 6 2 10 4 10
3 0 8 -4 11 -10z m-1865 -9 c0 -6 -4 -13 -10 -16 -5 -3 -10 1 -10 9 0 9 5 16
10 16 6 0 10 -4 10 -9z m7085 -33 c-4 -18 -13 -46 -21 -62 -7 -16 -11 -33 -7
-39 3 -5 2 -7 -4 -4 -6 4 -24 -15 -41 -41 -17 -26 -41 -56 -53 -67 -21 -19
-21 -17 4 25 15 25 46 84 69 132 45 91 64 112 53 56z m-5018 -21 c19 -12 5
-34 -44 -66 -43 -29 -45 -29 -81 -14 -58 24 -73 41 -60 68 10 22 16 23 92 21
44 0 86 -5 93 -9z m-2047 -77 c0 -22 -7 -25 -29 -11 -16 10 -6 31 15 31 8 0
14 -9 14 -20z m3738 -32 c8 -8 12 -52 12 -134 0 -93 3 -124 14 -133 11 -10 16
-9 23 3 11 20 165 65 170 49 3 -8 17 -6 50 8 26 11 53 17 60 14 8 -2 24 7 37
22 17 20 28 25 47 20 30 -8 125 -90 127 -111 1 -9 3 -23 4 -31 1 -8 5 -15 10
-15 4 0 8 -5 8 -10 0 -6 25 -36 55 -66 30 -31 55 -63 55 -71 0 -8 6 -21 14
-28 18 -19 26 -1 26 62 0 37 3 44 18 41 19 -3 28 -74 31 -231 1 -49 5 -76 11
-72 11 7 14 -8 4 -18 -15 -15 -44 16 -50 54 -4 21 -11 42 -15 45 -5 3 -9 22
-9 44 0 24 -5 40 -15 43 -8 4 -25 23 -38 44 -32 50 -123 143 -140 143 -8 0
-22 9 -32 20 -10 11 -21 18 -25 15 -3 -2 -14 5 -23 16 -9 10 -22 19 -29 19 -9
0 -9 -3 1 -9 11 -7 5 -11 -22 -16 -20 -4 -34 -11 -31 -16 8 -13 -9 -11 -49 6
-45 19 -47 19 -47 -1 0 -8 -4 -12 -10 -9 -5 3 -10 2 -10 -3 0 -6 -13 -15 -29
-20 -16 -6 -42 -25 -58 -43 -15 -18 -41 -44 -56 -58 -15 -14 -43 -41 -62 -58
-37 -36 -73 -44 -70 -15 3 27 16 52 29 52 22 0 113 106 101 118 -3 4 -11 -1
-16 -11 -6 -9 -18 -17 -27 -17 -9 0 -28 -9 -41 -19 -13 -10 -32 -16 -42 -14
-13 4 -24 -4 -36 -26 -10 -17 -25 -33 -34 -36 -21 -7 -44 -52 -41 -80 2 -13
-3 -25 -13 -29 -9 -3 -15 -11 -14 -18 1 -7 -3 -26 -10 -42 -6 -15 -10 -36 -9
-45 2 -10 -3 -15 -14 -15 -19 2 -23 -7 -11 -20 4 -4 8 -28 9 -54 1 -26 4 -54
7 -62 21 -61 27 -89 27 -134 1 -33 9 -68 25 -101 17 -34 21 -51 13 -56 -10 -7
-9 -31 9 -128 l6 -34 -43 6 c-55 7 -67 19 -52 52 11 23 9 27 -13 37 -19 8 -31
8 -50 0 -22 -10 -24 -14 -14 -31 24 -37 5 -52 -63 -49 l-63 3 -7 59 c-4 32
-10 61 -13 64 -2 3 -16 -3 -31 -13 l-27 -18 20 29 c12 16 33 40 48 54 14 13
35 39 47 58 11 18 33 39 49 47 16 9 29 21 29 28 0 7 9 20 20 30 20 16 27 76
21 160 -1 15 3 27 9 27 7 0 8 6 2 18 -5 9 -17 55 -27 102 -19 92 -26 109 -58
146 -14 16 -23 20 -28 13 -4 -8 -13 0 -23 20 -9 17 -21 31 -26 31 -5 0 -12 10
-16 23 -12 39 -35 57 -75 57 -21 0 -45 -7 -53 -16 -22 -21 -20 -5 1 18 13 15
14 21 5 27 -15 9 -78 7 -109 -3 -14 -5 -23 -3 -23 3 0 19 -47 12 -97 -14 -26
-13 -43 -25 -38 -25 16 -1 -46 -32 -92 -46 -36 -11 -41 -11 -36 2 3 8 14 14
24 14 10 0 19 4 19 10 0 5 10 18 22 30 12 11 19 22 16 25 -3 3 -27 -15 -54
-40 -27 -25 -52 -45 -56 -45 -5 0 -18 -10 -30 -22 -14 -14 -23 -18 -26 -10 -2
7 7 21 20 32 31 26 14 25 -24 -1 -23 -17 -27 -24 -16 -30 7 -5 9 -9 3 -9 -21
0 -35 17 -29 33 4 12 1 17 -10 17 -20 0 -21 38 -1 66 8 12 12 24 8 27 -3 4 2
9 11 13 9 3 13 10 10 15 -3 5 6 9 20 9 29 0 76 19 76 32 0 4 7 8 15 8 8 0 15
6 15 13 0 8 4 7 10 -3 7 -12 13 -12 27 -4 14 9 19 27 21 80 3 90 8 112 30 117
9 3 202 5 427 6 308 1 414 -2 423 -11z m3424 -14 c10 -22 10 -28 -6 -39 -33
-25 -84 12 -65 46 15 29 57 24 71 -7z m-7162 -64 c0 -11 -7 -20 -15 -20 -15 0
-21 21 -8 33 12 13 23 7 23 -13z m7114 -19 c11 -17 -6 -41 -29 -41 -27 0 -39
14 -31 35 6 16 51 20 60 6z m-4364 -106 c0 -8 -4 -15 -10 -15 -5 0 -7 7 -4 15
4 8 8 15 10 15 2 0 4 -7 4 -15z m1385 -105 c-3 -5 -11 -10 -16 -10 -6 0 -7 5
-4 10 3 6 11 10 16 10 6 0 7 -4 4 -10z m-995 -60 c-6 -11 -18 -20 -27 -20 -14
0 -14 2 2 20 10 11 22 20 27 20 5 0 4 -9 -2 -20z m67 -14 c-9 -9 -19 -16 -23
-16 -4 0 -13 -8 -20 -17 -13 -17 -13 -17 -14 2 0 23 51 67 64 55 5 -5 2 -15
-7 -24z m835 17 c-6 -2 -9 -10 -6 -15 4 -7 2 -8 -5 -4 -13 9 -5 26 12 25 9 0
8 -2 -1 -6z m-141 -43 c-25 -21 -46 -27 -36 -9 6 9 41 27 55 28 3 0 -6 -9 -19
-19z m-3896 -34 c0 -22 -14 -29 -34 -17 -19 12 -6 43 16 39 10 -2 18 -12 18
-22z m3235 -77 c0 -5 -4 -9 -10 -9 -5 0 -10 7 -10 16 0 8 5 12 10 9 6 -3 10
-10 10 -16z m1990 -9 c0 -5 -5 -10 -11 -10 -5 0 -7 5 -4 10 3 6 8 10 11 10 2
0 4 -4 4 -10z m-5232 -22 c-2 -13 -10 -23 -18 -23 -8 0 -16 10 -18 23 -3 17 2
22 18 22 16 0 21 -5 18 -22z m3672 -22 c0 -3 -4 -8 -10 -11 -5 -3 -10 -1 -10
4 0 6 5 11 10 11 6 0 10 -2 10 -4z m-416 -30 c-3 -9 -10 -13 -15 -10 -5 3 -3
11 4 19 15 16 19 13 11 -9z m46 -1 c-7 -9 -15 -13 -17 -11 -6 6 20 36 26 30 2
-2 -2 -10 -9 -19z m62 -17 c-15 -15 -26 -4 -18 18 5 13 9 15 18 6 9 -9 9 -15
0 -24z m-3358 -44 c7 -19 -1 -34 -19 -34 -18 0 -28 17 -21 35 7 20 32 19 40
-1z m3266 -60 c-18 -21 -24 -10 -9 18 8 14 14 18 17 10 2 -7 -2 -19 -8 -28z
m1264 -37 c3 -12 3 -24 0 -27 -8 -7 -45 40 -39 51 9 14 33 -1 39 -24z m-2174
-9 c0 -5 -4 -8 -10 -8 -5 0 -10 10 -10 23 0 18 2 19 10 7 5 -8 10 -18 10 -22z
m4602 -39 c28 -17 29 -19 8 -13 -14 3 -27 10 -30 14 -3 4 -14 10 -25 13 -16 4
-16 5 -3 6 10 0 32 -8 50 -20z m-4811 -22 c-10 -9 -11 -8 -5 6 3 10 9 15 12
12 3 -3 0 -11 -7 -18z m160 -9 c21 -23 24 -38 9 -38 -5 0 -7 -7 -4 -15 4 -10
0 -15 -11 -15 -12 0 -15 -5 -10 -20 3 -11 2 -28 -4 -37 -8 -16 -12 -14 -24 17
-13 30 -13 37 -1 54 8 11 14 33 14 48 0 34 7 35 31 6z m-3705 -16 c20 -14 52
-131 36 -133 -4 0 -14 -2 -22 -4 -118 -31 -125 -30 -161 29 -30 50 7 108 59
92 9 -3 28 1 42 8 31 17 32 17 46 8z m3519 -12 c-3 -5 -11 -10 -16 -10 -6 0
-7 5 -4 10 3 6 11 10 16 10 6 0 7 -4 4 -10z m4436 -23 c-11 -12 -23 -19 -25
-16 -9 9 25 50 36 43 6 -4 2 -14 -11 -27z m-1092 -7 c-21 -14 -32 1 -12 15 12
9 19 10 22 3 2 -6 -3 -14 -10 -18z m-5462 -25 c-6 -17 -37 -18 -43 -1 -3 9 0
23 7 32 12 14 14 14 26 -2 7 -10 12 -23 10 -29z m1379 -3 c-33 -4 -41 1 -32
23 5 14 9 14 33 -2 l27 -18 -28 -3z m-136 -13 c0 -16 -4 -29 -10 -29 -5 0 -10
16 -10 36 0 21 4 33 10 29 6 -3 10 -19 10 -36z m5870 16 c13 -14 21 -27 18
-30 -2 -3 -17 9 -33 25 -16 17 -24 30 -19 30 6 0 21 -11 34 -25z m-1558 -17
c-6 -6 -15 -8 -19 -4 -4 4 -1 11 7 16 8 5 17 7 19 4 3 -2 -1 -10 -7 -16z m38
13 c0 -6 -4 -13 -10 -16 -5 -3 -10 1 -10 9 0 9 5 16 10 16 6 0 10 -4 10 -9z
m-4318 -33 c-7 -7 -12 -8 -12 -2 0 6 3 14 7 17 3 4 9 5 12 2 2 -3 -1 -11 -7
-17z m-902 3 c0 -17 -19 -22 -57 -15 -31 6 -34 8 -18 15 28 11 75 11 75 0z
m1117 -13 c-3 -8 -6 -5 -6 6 -1 11 2 17 5 13 3 -3 4 -12 1 -19z m4278 -65 c0
-30 5 -40 22 -48 15 -6 25 -22 29 -42 8 -41 1 -58 -27 -73 -17 -10 -20 -9 -14
1 6 9 3 11 -9 6 -15 -6 -17 -3 -12 21 7 30 -16 104 -33 110 -17 6 -13 32 4 32
9 0 18 7 21 15 11 27 19 16 19 -22z m-3270 -43 c-2 -8 -15 -58 -29 -110 -38
-144 -46 -216 -30 -271 8 -26 21 -52 29 -59 35 -29 14 -29 -150 -1 -33 6 -64
11 -69 11 -5 0 -6 52 -4 115 5 106 8 121 39 181 31 63 105 146 151 170 18 10
27 9 45 -5 12 -9 20 -23 18 -31z m2138 15 c-7 -21 -13 -19 -13 6 0 11 4 18 10
14 5 -3 7 -12 3 -20z m-3213 -32 c0 -23 2 -25 35 -19 31 6 36 4 45 -19 5 -14
15 -25 21 -25 8 0 10 -15 5 -52 -4 -29 -8 -59 -8 -65 -1 -7 -5 -13 -10 -13
-15 0 -38 -67 -38 -110 0 -26 9 -55 26 -82 31 -49 24 -73 -22 -74 -57 -1 -74
-4 -74 -14 0 -5 7 -10 15 -10 17 0 38 -69 25 -85 -5 -6 -28 -10 -51 -8 -45 2
-83 -12 -74 -28 4 -5 17 -9 30 -9 13 0 27 -4 30 -10 3 -5 1 -10 -4 -10 -16 0
-13 -16 5 -34 14 -15 14 -16 -4 -16 -19 0 -50 -45 -39 -56 13 -13 -14 -42 -43
-46 -37 -6 -81 36 -83 79 -2 31 -18 53 -39 53 -7 0 -38 15 -69 34 -31 19 -71
37 -88 41 -17 4 -39 17 -47 30 -8 13 -29 28 -45 34 -27 9 -29 13 -29 65 0 58
-6 64 -40 46 -15 -8 -32 -4 -75 16 -66 31 -84 60 -95 149 -6 51 -5 65 13 94
22 37 76 65 104 54 20 -7 67 -38 98 -64 23 -20 129 -50 141 -40 5 3 16 26 24
51 14 42 18 45 55 50 52 7 62 14 83 58 16 36 19 37 82 44 36 3 79 10 95 16 37
12 45 7 45 -25z m3237 -19 c-3 -3 -12 -4 -19 -1 -8 3 -5 6 6 6 11 1 17 -2 13
-5z m-261 -70 c-2 -15 -8 -30 -14 -32 -5 -1 -8 -11 -5 -22 3 -12 -6 -30 -27
-50 -18 -17 -29 -34 -26 -38 4 -3 18 7 31 23 13 17 24 25 25 18 0 -6 3 -18 6
-27 3 -9 1 -16 -6 -16 -6 0 -8 6 -4 13 4 7 3 9 -2 4 -5 -5 -9 -12 -9 -15 0 -4
-4 -12 -7 -18 -4 -7 5 -21 22 -34 35 -27 38 -55 12 -103 -15 -29 -20 -32 -36
-23 -35 20 -51 41 -75 100 -20 48 -23 69 -18 124 7 88 23 119 67 130 22 5 34
14 32 23 -2 8 5 5 17 -7 12 -14 19 -32 17 -50z m-1293 49 c-7 -2 -19 -2 -25 0
-7 3 -2 5 12 5 14 0 19 -2 13 -5z m2647 -19 c0 -8 -4 -12 -10 -9 -5 3 -10 10
-10 16 0 5 5 9 10 9 6 0 10 -7 10 -16z m-7228 -26 c-9 -9 -15 -9 -24 0 -9 9
-7 12 12 12 19 0 21 -3 12 -12z m3681 -5 c-7 -2 -19 -2 -25 0 -7 3 -2 5 12 5
14 0 19 -2 13 -5z m761 -115 c1 -70 0 -71 -27 -79 -22 -6 -33 -3 -47 11 -18
18 -18 23 -5 66 16 54 53 100 69 84 5 -5 10 -42 10 -82z m243 70 c-3 -8 -6 -5
-6 6 -1 11 2 17 5 13 3 -3 4 -12 1 -19z m-4498 -152 c17 -21 31 -49 31 -61 0
-42 -63 -76 -100 -53 -18 11 -23 10 -36 -7 -24 -32 -13 -50 28 -50 79 0 90
-65 15 -87 -23 -6 -52 -22 -64 -35 -22 -23 -39 -31 -28 -13 3 5 -18 21 -47 34
-37 16 -78 50 -136 109 -77 80 -105 125 -95 155 7 18 51 15 113 -9 92 -36 113
-36 143 1 26 30 26 32 9 55 -9 14 -25 25 -34 25 -22 0 -24 33 -3 50 19 16 35
4 35 -26 0 -41 34 -30 60 20 l24 43 27 -56 c14 -31 40 -73 58 -95z m4871 70
c-5 -5 -2 -15 7 -24 10 -11 12 -17 4 -20 -6 -2 -11 -8 -11 -14 0 -6 -8 -17
-17 -25 -16 -13 -13 -14 25 -9 50 7 53 -1 12 -29 -16 -11 -30 -24 -30 -29 0
-4 -11 -21 -25 -38 -26 -31 -32 -62 -15 -73 6 -3 10 -17 10 -31 0 -17 -5 -24
-20 -24 -11 0 -20 -4 -20 -9 0 -12 -44 -61 -55 -61 -4 0 -13 -7 -19 -16 -10
-14 -15 -10 -31 28 -22 50 -74 118 -156 203 -65 67 -122 176 -64 123 7 -7 28
-24 46 -38 17 -14 35 -27 38 -30 17 -13 80 -99 96 -129 16 -32 18 -33 62 -26
45 7 99 45 74 53 -9 3 -7 9 5 23 17 19 17 20 -2 13 -13 -5 -9 1 10 18 31 26
48 98 23 98 -7 1 0 8 16 16 31 17 36 34 10 34 -17 1 -17 1 0 11 9 5 17 18 17
27 0 15 2 15 10 2 5 -9 5 -19 0 -24z m2204 19 c-6 -16 -24 -21 -24 -7 0 11 11
22 21 22 5 0 6 -7 3 -15z m-14 -39 c0 -3 -4 -8 -10 -11 -5 -3 -10 -1 -10 4 0
6 5 11 10 11 6 0 10 -2 10 -4z m-2623 -90 c-6 -39 -15 -67 -49 -142 -6 -12
-33 -49 -60 -82 -56 -69 -39 -70 -188 1 -52 24 -112 50 -132 57 -59 22 -33 32
61 25 81 -7 89 -6 136 20 121 66 168 98 196 134 33 42 43 38 36 -13z m-2474
-31 c8 -8 17 -11 20 -8 4 3 14 -13 23 -36 9 -22 20 -38 25 -35 5 3 9 -9 9 -26
0 -17 5 -40 10 -50 16 -30 -8 -60 -46 -60 -22 0 -34 -7 -44 -25 -7 -14 -17
-25 -22 -25 -5 0 -20 -11 -34 -25 -25 -25 -54 -33 -54 -15 0 6 -9 10 -20 10
-17 0 -19 -4 -13 -27 19 -76 -4 -149 -48 -149 -32 0 -49 18 -65 73 -23 76 -18
161 12 224 15 30 29 49 31 43 8 -22 62 8 79 44 10 21 29 39 49 48 19 7 36 23
40 34 7 24 28 26 48 5z m2532 -23 c-7 -8 -35 13 -35 26 0 13 3 12 19 -4 10
-10 17 -20 16 -22z m627 -84 c-1 -4 7 -12 18 -18 11 -6 20 -17 20 -25 0 -18
-70 -85 -90 -85 -9 -1 0 -14 24 -35 58 -51 173 -65 271 -31 100 35 141 61 222
143 44 46 85 83 91 83 14 0 24 -29 17 -50 -3 -10 -19 -23 -35 -30 -40 -17 -58
-39 -40 -50 7 -4 14 -20 16 -34 1 -15 -1 -24 -5 -21 -5 2 -12 -28 -16 -68 -3
-39 -12 -78 -18 -86 -10 -12 -6 -13 21 -9 30 4 32 3 32 -27 0 -17 -7 -40 -15
-51 -8 -10 -15 -27 -15 -36 0 -10 -9 -22 -20 -28 -11 -6 -20 -21 -20 -34 0
-15 7 -26 20 -29 29 -8 27 -59 -5 -93 -14 -15 -25 -31 -25 -36 0 -6 -9 -23
-21 -40 -12 -16 -19 -32 -15 -35 6 -6 -18 -56 -48 -96 -16 -22 -18 -31 -9 -46
13 -22 8 -31 -19 -31 -10 0 -18 -4 -18 -10 0 -5 0 -13 0 -17 0 -5 6 -8 13 -8
20 -1 38 -16 31 -26 -3 -6 -17 -14 -30 -19 -17 -7 -24 -17 -24 -35 0 -15 -4
-24 -9 -20 -14 8 -91 -25 -91 -39 0 -21 -74 -40 -160 -40 -47 0 -88 -4 -91 -9
-14 -19 -88 6 -130 44 -24 21 -47 40 -53 42 -16 5 10 57 29 57 25 0 17 14 -20
34 -40 22 -44 32 -14 41 37 12 52 93 24 131 -16 21 -20 70 -6 78 17 11 32 178
17 193 -13 13 -6 135 10 168 11 24 13 39 6 52 -6 11 -7 54 -3 108 6 71 4 95
-7 113 -21 33 0 78 51 103 21 11 42 29 44 40 5 16 12 12 51 -29 26 -26 46 -50
44 -54z m785 33 c7 -25 17 -49 23 -55 5 -5 10 -20 10 -33 0 -12 14 -38 30 -57
19 -21 28 -40 24 -50 -4 -11 -1 -16 10 -16 19 0 21 -14 3 -32 -8 -7 -12 -19
-9 -26 2 -6 -2 -13 -10 -13 -7 -1 -17 -2 -23 -4 -5 -1 -16 -3 -22 -3 -7 -1
-13 -9 -13 -18 0 -9 5 -12 12 -8 8 5 9 2 4 -12 -5 -10 -15 -42 -22 -70 -8 -28
-21 -68 -29 -89 -13 -30 -18 -35 -31 -24 -8 7 -11 16 -6 23 5 6 15 40 22 76 7
36 23 83 35 106 l23 40 -22 0 c-19 -1 -21 3 -18 59 3 82 -6 131 -21 116 -9 -9
-9 -14 2 -21 12 -7 12 -11 -1 -24 -18 -17 -28 -11 -28 15 0 10 -9 34 -20 54
-11 19 -18 40 -16 47 3 7 7 26 11 41 5 25 10 28 37 25 29 -3 34 -8 45 -47z
m2227 -47 c9 -3 16 -10 16 -14 0 -10 -38 -1 -46 11 -6 10 7 12 30 3z m-6510
-72 c-34 -28 -82 -104 -55 -88 8 6 21 -60 13 -68 -2 -3 -18 1 -35 6 -18 7 -32
7 -34 2 -11 -31 -24 -36 -113 -39 -86 -4 -96 -2 -122 20 -30 25 -117 42 -159
30 -24 -6 -24 -6 -4 11 75 62 335 140 480 143 49 1 49 0 29 -17z m2756 -37
c-7 -8 -16 -12 -21 -9 -13 8 -1 24 18 24 13 0 13 -3 3 -15z m-4415 -5 c-3 -5
-13 -10 -21 -10 -8 0 -12 5 -9 10 3 6 13 10 21 10 8 0 12 -4 9 -10z m4816 -23
c-10 -9 -11 -8 -5 6 3 10 9 15 12 12 3 -3 0 -11 -7 -18z m-311 -17 c0 -16 -4
-30 -10 -30 -5 0 -10 11 -10 24 0 13 -6 27 -12 29 -7 3 -3 6 10 6 18 1 22 -4
22 -29z m3498 -14 c3 -20 0 -27 -10 -24 -7 3 -14 17 -16 32 -3 20 0 27 10 24
7 -3 14 -17 16 -32z m-3330 -14 c6 -18 -15 -14 -22 4 -4 10 -1 14 6 12 6 -2
14 -10 16 -16z m-76 -7 c10 0 17 -4 17 -10 0 -5 -7 -9 -16 -7 -11 2 -13 -2 -8
-17 10 -34 -12 -24 -24 10 -14 40 -14 42 2 32 6 -4 20 -8 29 -8z m-2543 -35
c14 0 51 -55 51 -75 0 -3 -16 -5 -35 -5 -34 0 -35 1 -35 39 0 22 -5 41 -11 43
-6 2 -7 11 -2 23 7 19 8 19 11 -2 2 -14 10 -23 21 -23z m-2099 -54 c-8 -8 -13
-7 -20 4 -11 17 -3 51 14 62 15 10 21 -51 6 -66z m4883 57 c-13 -2 -23 -9 -23
-14 0 -6 -5 -7 -11 -3 -15 9 9 24 36 22 17 -1 17 -1 -2 -5z m-120 -43 c-1 -19
-3 -52 -5 -72 l-3 -37 -40 6 c-45 6 -59 13 -29 13 14 0 20 8 22 25 1 19 -3 25
-18 25 -19 0 -19 1 -2 18 9 11 20 17 23 16 3 -2 4 8 1 22 -4 23 -2 25 24 22
26 -3 29 -6 27 -38z m-5322 4 c20 -14 43 -39 49 -55 13 -31 6 -99 -11 -99 -6
0 -8 -4 -4 -9 3 -5 -2 -16 -10 -24 -13 -14 -19 -13 -55 6 -22 12 -42 29 -45
37 -3 8 -18 29 -34 46 -58 62 -49 110 22 117 23 2 44 4 46 5 3 1 22 -10 42
-24z m9519 -4 c0 -5 -7 -7 -15 -4 -8 4 -15 8 -15 10 0 2 7 4 15 4 8 0 15 -4
15 -10z m-7505 -20 c3 -5 30 -10 58 -10 56 0 72 -7 74 -30 3 -43 24 -74 36
-52 2 4 2 2 1 -5 -2 -7 2 -15 7 -19 15 -9 -8 -204 -26 -235 -4 -5 1 -9 9 -9 9
0 16 -7 16 -15 0 -8 6 -15 13 -16 6 0 2 -4 -11 -9 -18 -8 -21 -15 -16 -35 5
-21 3 -25 -15 -25 -23 0 -29 15 -8 23 6 3 8 6 2 6 -5 0 -16 -3 -24 -8 -12 -8
-12 -12 -2 -25 8 -9 22 -16 32 -16 25 0 14 -26 -14 -34 -12 -3 -24 -1 -28 5
-3 6 -6 -4 -7 -20 0 -17 -3 -35 -7 -41 -10 -16 -28 -12 -21 6 9 24 21 134 21
199 0 66 -31 195 -47 195 -10 0 -8 -34 8 -133 7 -41 -3 -147 -14 -147 -4 0 -7
37 -8 83 -1 87 -36 272 -61 320 -11 22 -12 32 -2 43 13 16 25 18 34 4z m201 2
c16 -10 27 -69 15 -76 -6 -4 -7 -14 -4 -24 4 -12 3 -14 -5 -7 -6 6 -13 30 -15
55 -3 28 -9 44 -17 42 -6 -1 -9 2 -5 8 7 12 16 12 31 2z m2933 -43 c-19 -12
-39 -11 -39 1 0 6 9 10 20 10 11 0 20 6 21 13 0 8 2 8 6 -2 3 -7 -1 -17 -8
-22z m1908 -26 c5 -14 -26 -45 -40 -40 -18 6 -19 24 -1 41 17 18 35 17 41 -1z
m567 -8 c-5 -18 -2 -25 9 -25 8 0 18 6 20 13 3 6 6 -29 6 -80 1 -50 -3 -94 -8
-97 -5 -3 -23 -3 -40 0 -34 7 -40 27 -17 53 18 20 21 55 11 105 -6 28 -4 40 6
47 20 12 20 12 13 -16z m-4366 -26 c-4 -51 -27 -71 -53 -46 -9 9 -13 17 -8 18
4 0 -1 4 -12 9 -15 6 -16 9 -4 9 8 1 26 12 39 26 33 35 42 31 38 -16z m-1011
-1 c-3 -8 -6 -5 -6 6 -1 11 2 17 5 13 3 -3 4 -12 1 -19z m-1910 6 c28 -8 36
-29 18 -48 -8 -8 -15 -20 -15 -26 0 -6 -10 -10 -22 -8 -15 2 -31 18 -46 46
l-23 42 33 0 c18 0 43 -3 55 -6z m2014 -49 c16 -4 32 -12 36 -19 20 -30 90
-76 118 -76 l30 -1 -23 -19 c-20 -17 -21 -19 -5 -23 14 -4 13 -5 -4 -6 -12 0
-23 2 -25 7 -5 11 -105 92 -114 92 -19 0 -54 46 -53 69 2 23 2 23 6 4 3 -14
14 -24 34 -28z m6919 10 c0 -8 -2 -15 -4 -15 -2 0 -6 7 -10 15 -3 8 -1 15 4
15 6 0 10 -7 10 -15z m-3973 -35 c1 -15 -4 -20 -22 -20 -13 0 -32 -3 -42 -7
-16 -6 -16 -5 -4 10 7 9 20 17 27 17 8 0 14 5 14 10 0 19 26 10 27 -10z
m-5067 2 c0 -5 -9 -17 -20 -27 -19 -17 -19 -17 -7 9 12 25 27 35 27 18z m3030
-2 c0 -5 9 -10 20 -10 13 0 20 -7 20 -20 0 -11 -4 -20 -10 -20 -5 0 -10 7 -10
15 0 8 -8 15 -17 14 -10 0 -13 -3 -6 -5 7 -3 10 -11 7 -17 -3 -8 -22 -11 -54
-9 -44 4 -48 6 -34 19 12 13 17 13 31 1 15 -11 16 -11 10 4 -4 11 0 21 11 27
22 13 32 13 32 1z m6035 -31 c10 -30 0 -33 -13 -4 -6 14 -7 25 -2 25 5 0 12
-9 15 -21z m-8987 -22 c5 -24 -15 -21 -21 4 -3 13 -1 19 6 16 7 -2 13 -11 15
-20z m71 -29 c13 -27 27 -64 32 -82 4 -17 11 -42 15 -56 l6 -25 -25 26 c-18
19 -23 33 -20 53 3 16 2 31 -3 35 -9 6 -54 86 -54 95 0 4 6 6 13 6 6 -1 23
-24 36 -52z m4940 25 c0 -25 -1 -26 -9 -8 -12 27 -12 35 0 35 6 0 10 -12 9
-27z m-2163 -12 c-4 -5 0 -12 6 -14 8 -3 6 -6 -4 -6 -10 -1 -18 6 -18 14 0 8
5 15 11 15 5 0 8 -4 5 -9z m-3011 -11 c3 -5 2 -10 -4 -10 -5 0 -13 5 -16 10
-3 6 -2 10 4 10 5 0 13 -4 16 -10z m6308 -7 c-7 -2 -13 -11 -13 -19 0 -9 -5
-12 -10 -9 -13 8 6 35 24 34 7 0 6 -2 -1 -6z m-6213 -7 c0 -11 -19 -15 -25 -6
-3 5 1 10 9 10 9 0 16 -2 16 -4z m8538 -13 c-5 -25 -28 -28 -28 -4 0 12 6 21
16 21 9 0 14 -7 12 -17z m-8505 -18 c-16 -22 -33 -32 -33 -20 0 8 34 43 43 44
4 1 0 -10 -10 -24z m2985 3 c14 -12 16 -64 2 -73 -6 -4 -8 -11 -4 -16 3 -5 10
-7 15 -4 5 4 9 1 9 -4 0 -6 -5 -11 -11 -11 -16 0 -38 -31 -39 -54 0 -11 -5
-16 -14 -13 -8 3 -20 -1 -27 -9 -9 -11 -15 -12 -25 -3 -11 9 -14 8 -14 0 0
-13 -76 -50 -127 -61 -24 -6 -30 -4 -26 6 2 7 19 14 36 16 36 4 50 28 15 28
-12 0 -30 5 -38 11 -12 8 -11 9 5 5 11 -3 27 -1 35 4 12 8 10 10 -10 10 l-25
1 23 19 c13 11 21 23 18 28 -7 11 70 45 106 46 25 1 26 2 11 14 -18 13 -72 11
-108 -4 -20 -8 -20 -8 -1 11 24 25 63 45 86 45 10 0 20 6 23 13 6 15 63 11 85
-5z m-2898 -3 c7 -9 10 -18 6 -22 -8 -9 -56 14 -56 27 0 15 36 12 50 -5z
m8104 -36 c22 -23 26 -33 17 -42 -16 -16 -14 -30 4 -24 25 10 27 -12 5 -71
-13 -31 -23 -65 -24 -76 -1 -14 -15 -22 -55 -33 -69 -17 -73 -12 -65 88 6 72
5 76 -15 82 -27 7 -27 18 4 51 14 15 25 31 25 36 0 11 19 18 50 19 16 1 36
-10 54 -30z m-6054 -51 c0 -26 -2 -29 -15 -18 -8 7 -15 26 -15 42 0 26 2 29
15 18 8 -7 15 -26 15 -42z m120 -1 c0 -30 -6 -50 -21 -66 l-22 -23 -14 31
c-14 28 -14 32 6 57 11 14 18 30 15 35 -3 5 4 9 15 9 18 0 21 -6 21 -43z m387
11 c-3 -8 -6 -5 -6 6 -1 11 2 17 5 13 3 -3 4 -12 1 -19z m-2730 -10 c-3 -8 -6
-5 -6 6 -1 11 2 17 5 13 3 -3 4 -12 1 -19z m2683 14 c-9 -4 -16 -15 -16 -24
-1 -10 -2 -27 -3 -38 -1 -19 -57 -57 -68 -47 -3 3 8 12 23 20 l27 14 -27 7
c-22 5 -39 28 -18 25 4 -1 21 -1 37 1 26 1 27 3 10 10 l-20 9 20 1 c13 1 15 3
6 7 -11 5 -11 7 0 14 8 5 21 8 29 8 13 0 13 -1 0 -7z m4085 0 c35 -25 125
-169 125 -199 0 -7 11 -13 24 -13 24 0 37 -21 52 -84 7 -28 7 -28 -32 -22 -21
3 -50 8 -64 10 -14 2 -28 4 -32 5 -17 3 -7 21 12 21 22 0 26 16 10 40 -9 13
-10 13 -10 0 -1 -9 -5 -6 -10 8 -5 12 -14 22 -20 22 -13 0 -13 -6 0 -30 8 -15
7 -18 -4 -14 -8 3 -16 15 -19 27 -2 12 -8 30 -12 40 -9 22 12 23 37 0 26 -23
35 -7 11 20 -24 26 -93 149 -93 165 0 14 10 15 25 4z m-4201 -17 c-4 -8 -8
-15 -10 -15 -2 0 -4 7 -4 15 0 8 4 15 10 15 5 0 7 -7 4 -15z m2500 0 c-4 -9 0
-15 10 -15 16 0 23 -39 10 -53 -14 -13 -34 6 -28 28 4 17 0 24 -18 29 -19 5
-20 8 -8 16 22 15 40 12 34 -5z m-2889 -35 c-3 -5 -10 -10 -16 -10 -5 0 -9 5
-9 10 0 6 7 10 16 10 8 0 12 -4 9 -10z m388 -27 c-7 -2 -21 -2 -30 0 -10 3 -4
5 12 5 17 0 24 -2 18 -5z m44 1 c-3 -3 -12 -4 -19 -1 -8 3 -5 6 6 6 11 1 17
-2 13 -5z m453 -49 c-6 -19 -17 -35 -23 -35 -7 0 -6 -4 3 -10 13 -8 12 -10 -2
-10 -10 0 -18 -4 -18 -9 0 -5 -15 -16 -32 -25 l-33 -17 54 3 c35 2 56 -1 58
-9 3 -9 -39 -11 -166 -10 -197 2 -220 11 -86 32 22 4 51 17 65 29 32 29 67 39
74 20 9 -22 35 -17 31 6 -3 17 2 20 29 20 31 0 34 3 41 38 4 20 10 31 12 25 3
-7 -1 -29 -7 -48z m-3018 -13 c10 -7 18 -21 18 -31 0 -9 5 -22 12 -29 9 -9 6
-12 -14 -12 -22 0 -39 16 -42 42 -1 3 -4 10 -8 14 -5 4 -8 21 -8 38 1 28 2 29
12 11 6 -11 20 -26 30 -33z m2508 44 c0 -2 -9 -6 -20 -9 -11 -3 -18 -1 -14 4
5 9 34 13 34 5z m16 -22 c-5 -12 -2 -15 10 -10 22 8 72 18 56 10 -6 -3 -9 -10
-6 -16 3 -5 -2 -9 -12 -8 -30 3 -60 -1 -46 -7 6 -2 10 -9 7 -14 -3 -4 12 -2
34 6 39 14 40 13 28 -6 -6 -10 -19 -20 -27 -20 -19 -2 -54 2 -58 6 -8 8 -9 42
0 58 11 21 22 23 14 1z m2475 3 c22 4 29 2 29 -10 0 -8 7 -20 15 -27 8 -7 12
-17 9 -22 -3 -5 -14 -2 -25 8 -19 17 -19 16 -13 -13 5 -27 3 -31 -21 -37 -35
-9 -51 5 -36 32 14 26 14 55 1 47 -6 -3 -10 4 -10 16 0 17 3 20 11 12 7 -7 25
-9 40 -6z m2988 -76 c17 -47 31 -85 31 -86 0 -7 -61 10 -67 19 -8 10 -5 162 2
154 2 -2 17 -41 34 -87z m-8079 69 c0 -5 -8 -10 -17 -10 -15 0 -16 2 -3 10 19
12 20 12 20 0z m8382 -42 c-9 -35 -25 -41 -31 -12 -1 9 4 21 13 26 9 5 16 17
17 26 0 9 3 12 5 5 3 -6 1 -26 -4 -45z m-8122 16 c0 -9 -5 -14 -12 -12 -18 6
-21 28 -4 28 9 0 16 -7 16 -16z m1785 -24 c0 -8 -8 -16 -19 -18 -11 -3 -16 0
-12 7 4 6 2 11 -3 11 -6 0 -11 5 -11 11 0 6 10 9 23 7 12 -2 22 -10 22 -18z
m271 -48 c-11 -11 -19 -13 -26 -6 -7 7 -4 20 12 40 l23 29 3 -24 c2 -13 -3
-31 -12 -39z m-1591 38 c4 -6 11 -7 17 -4 13 8 3 -151 -11 -188 -9 -22 -10
-21 -10 9 -1 17 -6 33 -13 35 -10 4 -10 19 -2 67 6 34 7 64 2 67 -4 3 -8 0 -8
-7 0 -7 -2 -10 -5 -7 -7 7 5 38 15 38 5 0 12 -5 15 -10z m-665 -8 c0 -4 -6
-14 -12 -21 -10 -11 -10 -14 0 -18 6 -3 12 -11 12 -18 0 -8 9 -19 20 -25 11
-6 18 -15 15 -21 -4 -5 -11 -7 -16 -3 -19 11 -39 -17 -33 -45 5 -21 4 -24 -6
-14 -9 8 -14 42 -16 93 -1 72 0 80 17 80 11 0 19 -4 19 -8z m436 -22 c-2 -3
-6 -14 -11 -25 l-7 -20 -8 20 c-10 25 8 64 20 44 5 -7 7 -16 6 -19z m44 23 c0
-5 -9 -44 -19 -88 -10 -44 -22 -103 -26 -130 -13 -99 -25 -82 -18 25 3 58 9
107 14 110 11 8 33 62 30 78 -1 6 3 12 9 12 5 0 10 -3 10 -7z m4490 -11 c0 -4
-19 -5 -42 -3 l-43 5 35 6 c36 6 50 4 50 -8z m-2415 -1 c-25 -10 -114 -13 -98
-3 6 4 35 8 65 9 35 2 46 0 33 -6z m1421 -142 c66 -82 139 -177 164 -209 72
-95 121 -131 181 -135 28 -2 62 -11 75 -20 26 -17 32 -53 12 -73 -18 -18 -30
-14 -23 7 4 14 0 23 -15 31 -29 15 -32 10 -15 -24 8 -15 13 -38 10 -50 -3 -13
4 -32 19 -49 l23 -29 174 11 c281 18 441 16 533 -8 43 -12 85 -26 93 -32 10
-9 19 -8 36 8 20 17 147 76 283 132 83 33 217 47 332 33 54 -6 125 -19 158
-29 52 -16 85 -17 294 -11 129 4 314 12 412 18 205 13 228 8 277 -61 38 -52
38 -73 1 -124 -44 -60 -65 -104 -54 -114 23 -21 112 -41 140 -31 61 20 190 27
454 23 199 -3 285 -8 310 -18 32 -12 78 -25 220 -59 30 -7 100 -25 155 -40 55
-14 136 -34 179 -44 44 -10 82 -24 84 -31 3 -10 -4 -12 -29 -8 -48 9 -377 10
-422 2 -77 -15 -45 -25 65 -21 66 3 159 -2 222 -10 61 -8 111 -14 112 -14 1 0
4 -11 8 -24 5 -19 14 -24 57 -29 53 -7 67 -12 56 -23 -13 -13 -179 -23 -409
-23 -133 0 -256 -3 -275 -7 -18 -3 -53 -3 -77 0 -36 6 -45 11 -50 32 -8 31
-26 27 -44 -10 -10 -20 -18 -25 -30 -20 -10 4 -93 11 -187 15 -234 10 -610 53
-633 72 -10 8 -12 23 -8 52 5 33 2 47 -13 67 -11 14 -17 28 -14 32 4 4 -11 4
-32 0 -22 -3 -55 -8 -73 -11 -20 -3 -54 3 -90 16 -64 23 -125 27 -227 11 -104
-15 -665 -29 -692 -17 -12 5 -20 13 -18 17 2 4 -6 5 -19 3 -13 -3 -26 -12 -29
-22 -5 -22 -57 -27 -57 -5 0 22 27 46 55 50 13 1 28 5 34 8 5 3 12 0 14 -6 4
-8 8 -5 12 9 4 12 20 26 36 32 25 9 29 15 29 47 l0 36 -102 -7 c-57 -3 -143
-7 -191 -7 -65 0 -90 -4 -94 -14 -7 -19 -23 -18 -23 1 0 8 7 15 16 15 11 0 14
5 10 16 -3 9 -6 20 -6 26 0 12 -24 -11 -38 -39 -6 -11 -13 -37 -16 -56 -9 -71
-16 -76 -103 -70 -43 2 -217 4 -388 3 l-310 -1 -21 -26 c-21 -25 -30 -26 -190
-39 -93 -8 -249 -21 -348 -30 -98 -9 -222 -17 -276 -17 -132 -3 -135 0 -126
118 5 57 12 95 21 105 11 10 43 15 118 17 113 2 112 -3 -3 -15 l-75 -7 -3 -77
c-3 -92 -27 -84 197 -63 86 8 244 21 351 30 205 17 235 25 246 69 3 13 -2 40
-10 61 l-16 38 -108 -7 c-94 -5 -234 -9 -269 -7 -15 1 -17 20 -5 38 6 10 29
10 98 2 82 -9 94 -8 135 10 24 12 56 21 71 21 15 0 29 3 32 8 2 4 -2 32 -10
62 -14 56 -64 119 -95 120 -20 0 -79 29 -79 38 0 4 -22 18 -49 31 -27 12 -60
33 -72 44 -27 25 -70 49 -76 43 -15 -14 94 -128 138 -146 38 -15 142 -90 135
-97 -10 -10 -68 10 -94 32 -15 12 -56 36 -92 53 -36 16 -78 42 -94 56 -25 23
-121 66 -146 66 -6 0 -10 4 -10 9 0 17 31 42 72 58 40 16 77 66 58 78 -17 10
-11 25 10 25 11 0 29 -9 41 -21 26 -26 49 -11 25 17 -8 11 -51 66 -95 123 -68
89 -77 107 -68 123 7 10 15 18 18 18 4 0 60 -68 125 -151z m4330 104 c-10 -10
-19 5 -10 18 6 11 8 11 12 0 2 -7 1 -15 -2 -18z m-5739 1 c-3 -3 -12 -4 -19
-1 -8 3 -5 6 6 6 11 1 17 -2 13 -5z m5690 -10 c5 -16 -68 -24 -85 -11 -11 9
-11 12 5 19 26 10 76 5 80 -8z m-7630 -26 c-3 -8 -6 -5 -6 6 -1 11 2 17 5 13
3 -3 4 -12 1 -19z m-371 -4 c-3 -9 -6 -22 -6 -30 0 -12 -4 -12 -21 -4 -20 11
-20 12 -2 30 22 23 37 25 29 4z m1861 10 c-3 -3 -12 -4 -19 -1 -8 3 -5 6 6 6
11 1 17 -2 13 -5z m-1947 -14 c0 -5 -4 -10 -10 -10 -5 0 -10 5 -10 10 0 6 5
10 10 10 6 0 10 -4 10 -10z m2397 4 c-3 -3 -12 -4 -19 -1 -8 3 -5 6 6 6 11 1
17 -2 13 -5z m5731 -6 c-3 -7 -11 -13 -18 -13 -7 0 -15 6 -17 13 -3 7 4 12 17
12 13 0 20 -5 18 -12z m-7958 -34 c0 -27 -15 -32 -24 -8 -11 28 -7 44 9 38 8
-4 15 -17 15 -30z m4624 21 c3 -8 13 -15 23 -15 17 -1 17 -1 0 -11 -14 -8 -23
-7 -38 7 -16 14 -19 14 -19 2 0 -10 -8 -13 -30 -10 -23 3 -30 0 -30 -13 0 -12
5 -15 20 -10 11 4 20 2 20 -4 0 -15 27 -14 33 2 3 6 6 0 6 -15 1 -31 -2 -33
-30 -18 -15 8 -19 7 -19 -4 0 -8 5 -18 10 -21 6 -3 10 -13 10 -22 0 -9 8 -22
18 -29 16 -13 16 -13 -3 -13 -11 0 -35 6 -54 13 -31 11 -32 13 -17 28 20 21
21 48 1 48 -14 0 -20 17 -16 48 1 7 -9 12 -24 12 -14 0 -25 4 -25 9 0 11 63
23 83 15 9 -3 24 -1 34 5 25 15 40 13 47 -4z m3286 5 c0 -18 -52 -33 -62 -18
-13 21 -10 24 27 26 19 2 35 -2 35 -8z m48 -47 c-2 -12 -13 -18 -32 -19 -15
-1 -32 -7 -38 -15 -8 -11 -9 -10 -4 4 3 10 6 23 6 28 0 6 4 8 9 4 5 -3 12 -1
16 5 11 18 47 12 43 -7z m-1388 -9 c0 -8 -4 -12 -10 -9 -5 3 -10 10 -10 16 0
5 5 9 10 9 6 0 10 -7 10 -16z m-6670 -18 c0 -20 -19 -31 -32 -18 -6 6 -7 15
-4 21 10 16 36 13 36 -3z m407 -23 c-3 -10 -5 -4 -5 12 0 17 2 24 5 18 2 -7 2
-21 0 -30z m929 7 c10 0 14 -12 14 -38 0 -29 -7 -45 -30 -67 -16 -15 -34 -43
-40 -61 -8 -22 -19 -34 -38 -39 -15 -4 -30 -11 -33 -17 -3 -5 -9 16 -13 47 -3
30 -12 75 -18 100 -9 34 -9 47 1 59 13 16 68 26 115 20 16 -2 35 -4 42 -4z
m-1570 -25 c3 -14 14 -30 23 -35 14 -8 13 -9 -4 -10 -21 0 -60 52 -48 64 13
12 23 6 29 -19z m8304 15 c0 -5 -9 -10 -20 -10 -11 0 -20 5 -20 10 0 6 9 10
20 10 11 0 20 -4 20 -10z m132 -25 c0 -5 -5 -11 -11 -13 -6 -2 -11 4 -11 13 0
9 5 15 11 13 6 -2 11 -8 11 -13z m-137 -35 c-3 -5 -13 -6 -21 -3 -12 4 -13 8
-3 14 15 9 32 2 24 -11z m168 14 c3 -3 -5 -18 -18 -32 -13 -14 -28 -23 -32
-18 -4 4 0 13 10 20 9 7 17 18 17 25 0 12 13 15 23 5z m-8503 -53 c0 -23 -16
-36 -25 -21 -9 14 1 40 15 40 5 0 10 -9 10 -19z m6820 -1 c0 -5 -5 -10 -11
-10 -5 0 -7 5 -4 10 3 6 8 10 11 10 2 0 4 -4 4 -10z m1683 -25 c-10 -14 -24
-25 -30 -25 -18 0 -16 5 9 33 28 31 44 25 21 -8z m-8448 -5 c-5 -8 -11 -8 -17
-2 -6 6 -7 16 -3 22 5 8 11 8 17 2 6 -6 7 -16 3 -22z m45 -10 c0 -5 -5 -10
-11 -10 -5 0 -7 5 -4 10 3 6 8 10 11 10 2 0 4 -4 4 -10z m8494 -18 c-11 -9
-31 -34 -43 -54 -23 -38 -53 -50 -67 -26 -5 8 -2 9 9 5 11 -4 22 2 34 20 26
38 75 85 82 78 3 -4 -4 -14 -15 -23z m-66 -9 c-2 -10 -14 -23 -27 -29 -13 -7
-27 -18 -32 -25 -4 -8 -11 -10 -15 -6 -8 7 53 73 69 76 5 0 7 -7 5 -16z
m-8408 -24 c0 -5 -4 -9 -10 -9 -5 0 -10 7 -10 16 0 8 5 12 10 9 6 -3 10 -10
10 -16z m8138 -53 c0 -11 7 -44 17 -73 22 -68 12 -116 -32 -150 l-33 -25 -9
25 c-6 14 -33 47 -60 73 -28 26 -48 51 -44 56 3 6 25 18 49 28 34 15 49 29 66
64 17 35 25 43 35 35 7 -6 12 -21 11 -33z m156 -5 c7 -10 7 -13 0 -8 -10 6
-25 -15 -38 -57 -5 -14 -10 -16 -17 -9 -8 8 -6 20 5 41 9 17 16 39 16 50 0 26
14 38 19 15 2 -10 8 -24 15 -32z m209 35 c-16 -27 -74 -88 -80 -83 -6 7 34 66
57 84 20 17 33 16 23 -1z m-4193 -42 c0 -3 -7 -1 -15 6 -8 7 -15 17 -15 22 0
5 7 3 15 -6 8 -8 15 -18 15 -22z m150 -15 c0 -6 -4 -7 -10 -4 -5 3 -10 11 -10
16 0 6 5 7 10 4 6 -3 10 -11 10 -16z m4050 -24 c-25 -25 -46 -41 -48 -35 -7
20 54 75 88 79 2 1 -16 -19 -40 -44z m-123 19 c-3 -3 -12 -4 -19 -1 -8 3 -5 6
6 6 11 1 17 -2 13 -5z m-4635 -48 c13 -13 46 -32 73 -41 28 -9 69 -28 91 -43
23 -15 50 -32 60 -39 18 -11 18 -12 -1 -12 -11 0 -29 6 -39 14 -11 8 -32 15
-47 15 -14 0 -37 8 -50 19 -34 26 -85 51 -106 51 -33 0 -46 15 -34 39 15 27
25 27 53 -3z m1603 -13 c29 -44 30 -50 10 -50 -8 0 -15 4 -15 9 0 5 -9 18 -20
30 -21 23 -27 48 -10 48 5 0 21 -17 35 -37z m1477 15 c-7 -7 -12 -8 -12 -2 0
14 12 26 19 19 2 -3 -1 -11 -7 -17z m1533 2 c-3 -5 -13 -10 -21 -10 -8 0 -14
5 -14 10 0 6 9 10 21 10 11 0 17 -4 14 -10z m169 -34 c-51 -44 -60 -35 -11 11
21 19 41 32 44 29 4 -3 -11 -21 -33 -40z m-7992 -12 c-2 -13 -8 -27 -13 -30
-10 -6 -12 59 -2 69 11 12 20 -12 15 -39z m7908 12 c0 -3 -4 -8 -10 -11 -5 -3
-10 -1 -10 4 0 6 5 11 10 11 6 0 10 -2 10 -4z m160 1 c0 -2 -16 -18 -35 -37
-19 -19 -35 -31 -35 -26 0 4 15 20 32 37 31 28 38 33 38 26z m11 -80 c-10 -9
-11 -8 -5 6 3 10 9 15 12 12 3 -3 0 -11 -7 -18z m-573 -13 c2 -10 8 -23 13
-28 15 -16 10 -29 -6 -16 -8 7 -15 21 -15 32 0 10 -4 17 -9 14 -5 -3 -11 0
-14 8 -4 9 0 13 11 12 9 -2 19 -11 20 -22z m-7531 -51 c-2 -16 -4 -5 -4 22 0
28 2 40 4 28 2 -13 2 -35 0 -50z m8228 57 c-3 -5 -11 -10 -16 -10 -6 0 -7 5
-4 10 3 6 11 10 16 10 6 0 7 -4 4 -10z m-8303 -32 c-9 -9 -12 -7 -12 12 0 19
3 21 12 12 9 -9 9 -15 0 -24z m-357 -58 c7 -12 -3 -50 -13 -50 -12 0 -33 40
-27 50 8 13 32 13 40 0z m235 -30 c0 -31 -42 -42 -163 -44 -118 -1 -142 8 -44
17 34 3 87 15 117 26 72 26 90 26 90 1z m190 -10 c0 -11 -7 -20 -15 -20 -18 0
-19 12 -3 28 16 16 18 15 18 -8z m8290 -14 c0 -2 -7 -7 -16 -10 -8 -3 -12 -2
-9 4 6 10 25 14 25 6z m353 -73 c-7 -2 -21 -2 -30 0 -10 3 -4 5 12 5 17 0 24
-2 18 -5z m-83 -63 c-20 -13 -160 -13 -160 0 0 6 36 10 88 10 60 0 82 -3 72
-10z m-169 -76 c23 -14 39 -27 36 -30 -7 -8 -57 15 -57 26 0 5 -7 10 -15 10
-8 0 -15 5 -15 10 0 15 6 13 51 -16z m-81 -35 c0 -11 -4 -17 -10 -14 -5 3 -10
13 -10 21 0 8 5 14 10 14 6 0 10 -9 10 -21z m-5397 -68 c8 -8 5 -15 -10 -26
-14 -10 -19 -22 -16 -35 5 -17 7 -18 20 -5 8 9 19 13 24 10 5 -4 9 -1 9 4 0 6
7 11 15 11 8 0 15 5 15 10 0 14 43 13 75 -2 30 -13 33 -37 5 -39 -11 -1 -26
-2 -32 -3 -7 0 -14 -16 -16 -34 -3 -27 -7 -32 -20 -26 -9 4 -32 9 -49 12 -18
2 -33 8 -33 13 0 5 -9 9 -19 9 -32 0 -81 48 -81 80 0 16 6 31 13 33 19 8 88 0
100 -12z m1802 -7 c8 -9 13 -24 10 -33 -3 -9 2 -26 10 -37 20 -26 19 -50 -5
-74 -11 -11 -20 -24 -20 -30 0 -5 -4 -10 -9 -10 -5 0 -12 -8 -15 -18 -4 -10
-23 -26 -44 -35 -20 -9 -54 -33 -76 -52 -74 -69 -63 -67 -272 -56 -361 20
-540 33 -734 52 -108 10 -212 19 -233 19 -25 0 -37 4 -37 14 0 8 -2 21 -5 28
-8 20 36 39 60 26 10 -6 52 -8 100 -5 91 5 138 29 150 74 3 13 17 29 32 36
l26 12 -24 6 c-13 4 -61 7 -107 8 -80 1 -85 0 -150 -40 -87 -53 -131 -60 -174
-27 -40 30 -68 41 -68 27 0 -6 -5 -7 -10 -4 -6 4 -10 3 -9 -2 5 -30 -3 -43
-26 -43 -31 0 -32 16 -2 43 l22 20 -22 -6 c-13 -3 -23 -1 -23 4 0 5 5 9 10 9
6 0 10 7 10 15 0 16 67 32 80 19 4 -5 10 -17 12 -27 3 -18 4 -18 23 0 11 10
43 29 71 42 52 23 52 23 330 17 154 -4 317 -11 364 -16 47 -5 157 -14 245 -20
88 -6 219 -15 290 -20 78 -6 142 -6 160 -1 17 5 25 10 19 10 -14 1 -16 62 -2
78 14 17 23 16 43 -3z m1455 -14 c0 -5 -2 -10 -4 -10 -3 0 -8 5 -11 10 -3 6
-1 10 4 10 6 0 11 -4 11 -10z m-1713 -7 c14 -6 10 -9 -17 -13 -45 -6 -100 0
-100 11 0 11 91 12 117 2z m110 -9 c-3 -3 -12 -4 -19 -1 -8 3 -5 6 6 6 11 1
17 -2 13 -5z m-2351 -85 c3 -6 1 -16 -5 -22 -6 -6 -11 -21 -11 -34 0 -13 -4
-23 -9 -23 -10 0 -23 69 -15 82 7 12 32 10 40 -3z m4314 -17 c18 -15 21 -22
12 -37 -11 -20 -4 -19 -230 -28 -92 -4 -125 9 -120 46 3 21 7 22 140 22 75 1
140 4 144 8 12 12 31 8 54 -11z m-1016 -25 c11 -31 -6 -57 -36 -57 -18 0 -19
4 -13 37 4 21 9 41 12 46 9 14 28 1 37 -26z m-579 -37 c0 -7 -6 -15 -12 -17
-8 -3 -13 4 -13 17 0 13 5 20 13 18 6 -3 12 -11 12 -18z m228 -14 c32 -30 34
-36 21 -47 -20 -16 -102 3 -122 29 -11 14 -9 19 10 34 33 25 51 22 91 -16z
m-323 -29 c19 -6 41 -10 49 -8 7 1 25 0 38 -4 19 -4 24 -11 21 -32 -6 -48 -28
-50 -111 -8 -45 22 -74 42 -70 48 4 6 0 8 -10 4 -10 -3 -17 -2 -17 4 0 6 -4 7
-10 4 -5 -3 -10 -2 -10 3 0 12 69 5 120 -11z m-1922 -23 c34 -9 24 -39 -13
-40 -17 -1 -45 -7 -62 -15 -29 -12 -35 -11 -49 3 -21 21 -10 38 24 38 15 0 34
5 42 10 18 11 27 12 58 4z m-330 -66 c30 -25 6 -50 -41 -41 -39 8 -52 27 -31
47 16 17 46 14 72 -6z m2382 -69 c0 -5 -7 -6 -15 -3 -8 4 -15 13 -15 21 0 13
3 13 15 3 8 -7 15 -16 15 -21z"/>
<path d="M4458 4915 c-3 -3 -25 -10 -49 -15 -43 -9 -43 -9 13 -5 31 3 67 9 80
14 22 9 22 10 -8 10 -17 1 -33 -1 -36 -4z"/>
<path d="M5895 4613 c-64 -7 -61 -20 6 -27 61 -6 96 5 83 25 -5 9 -14 9 -89 2z"/>
<path d="M5802 4530 c-13 -6 -28 -8 -32 -5 -11 7 -40 -5 -40 -16 0 -12 207
-12 214 0 3 5 -13 12 -37 15 -23 4 -51 9 -62 11 -11 2 -31 0 -43 -5z"/>
<path d="M5458 4522 c-54 -4 -65 -16 -15 -19 140 -7 240 -7 250 -1 8 5 7 8 -3
12 -20 7 -173 12 -232 8z"/>
<path d="M5968 4513 c6 -2 18 -2 25 0 6 3 1 5 -13 5 -14 0 -19 -2 -12 -5z"/>
<path d="M5865 4430 c-13 -21 6 -28 45 -18 22 6 37 14 34 19 -7 12 -71 11 -79
-1z"/>
<path d="M5788 4423 c7 -3 16 -2 19 1 4 3 -2 6 -13 5 -11 0 -14 -3 -6 -6z"/>
<path d="M5835 4420 c3 -5 8 -10 11 -10 2 0 4 5 4 10 0 6 -5 10 -11 10 -5 0
-7 -4 -4 -10z"/>
<path d="M6020 4426 c0 -9 40 -13 46 -5 3 5 -6 9 -20 9 -14 0 -26 -2 -26 -4z"/>
<path d="M5655 4119 c-22 -4 -74 -7 -116 -7 -81 1 -99 -4 -99 -28 0 -9 12 -14
38 -15 306 -11 496 -12 520 -5 12 4 22 14 22 22 0 8 -10 18 -22 23 -33 12
-296 20 -343 10z"/>
<path d="M5428 4033 c7 -3 16 -2 19 1 4 3 -2 6 -13 5 -11 0 -14 -3 -6 -6z"/>
<path d="M5465 4030 c-3 -5 1 -10 9 -10 9 0 16 5 16 10 0 6 -4 10 -9 10 -6 0
-13 -4 -16 -10z"/>
<path d="M5703 4033 c-12 -2 -27 -11 -33 -19 -11 -12 -2 -14 58 -14 47 0 73 4
81 14 17 20 -43 31 -106 19z"/>
<path d="M5845 4032 c-13 -13 -3 -22 25 -22 17 0 30 4 30 9 0 10 -47 21 -55
13z"/>
<path d="M5961 4031 c-26 -16 0 -30 54 -30 52 1 82 14 53 23 -34 11 -94 15
-107 7z"/>
<path d="M6315 3910 c-3 -5 -2 -10 4 -10 5 0 13 5 16 10 3 6 2 10 -4 10 -5 0
-13 -4 -16 -10z"/>
<path d="M3186 2965 c-3 -10 1 -15 13 -15 10 0 21 -8 25 -17 3 -10 9 -24 12
-30 3 -8 -2 -13 -14 -13 -26 0 -36 -27 -14 -40 13 -8 14 -13 4 -17 -18 -7 4
-33 28 -33 9 0 25 -9 35 -20 25 -28 36 -13 24 35 -5 22 -11 62 -14 90 -3 32
-10 54 -21 62 -24 18 -71 16 -78 -2z"/>
<path d="M3830 2951 c0 -6 5 -13 10 -16 16 -10 11 -44 -10 -65 -24 -24 -43
-25 -64 -5 -14 14 -46 11 -46 -4 0 -4 13 -22 28 -41 28 -32 29 -33 60 -19 18
8 32 20 32 26 0 7 6 13 14 13 8 0 29 17 46 38 l31 37 -26 23 c-26 22 -75 30
-75 13z"/>
<path d="M6207 2636 c-4 -32 -5 -61 -3 -64 12 -11 23 46 17 83 l-7 40 -7 -59z"/>
<path d="M6233 2387 c2 -7 21 -13 43 -15 46 -4 40 6 -11 18 -26 6 -35 5 -32
-3z"/>
<path d="M2610 2480 c0 -5 9 -15 20 -22 11 -7 20 -18 20 -25 0 -7 11 -13 25
-13 26 0 26 0 -9 35 -35 35 -56 44 -56 25z"/>
<path d="M3658 1946 c-24 -18 -23 -25 2 -19 11 3 20 12 20 19 0 17 0 17 -22 0z"/>
<path d="M3610 1912 c0 -6 -8 -13 -17 -15 -16 -4 -16 -5 -1 -6 18 -1 34 16 24
26 -3 4 -6 1 -6 -5z"/>
<path d="M3666 1905 c4 -8 8 -15 10 -15 2 0 4 7 4 15 0 8 -4 15 -10 15 -5 0
-7 -7 -4 -15z"/>
<path d="M8910 1800 c0 -5 7 -7 15 -4 8 4 15 8 15 10 0 2 -7 4 -15 4 -8 0 -15
-4 -15 -10z"/>
<path d="M1380 1735 c0 -8 2 -15 4 -15 2 0 6 7 10 15 3 8 1 15 -4 15 -6 0 -10
-7 -10 -15z"/>
<path d="M6224 1150 c-12 -5 -25 -13 -28 -18 -7 -12 95 6 109 19 12 12 -52 11
-81 -1z"/>
<path d="M7284 984 c3 -9 6 -18 6 -20 0 -2 6 -4 14 -4 8 0 16 -5 18 -12 3 -7
18 1 38 20 l33 32 -58 0 c-48 0 -56 -3 -51 -16z"/>
<path d="M7360 924 c0 -11 5 -14 16 -10 9 3 22 6 30 6 8 0 14 5 14 10 0 6 -13
10 -30 10 -21 0 -30 -5 -30 -16z"/>
<path d="M8285 671 c6 -5 24 -13 40 -17 39 -9 30 0 -15 15 -19 6 -30 7 -25 2z"/>
<path d="M4942 529 c-29 -34 -49 -66 -45 -70 9 -9 593 -49 709 -49 l73 0 96
64 c105 69 106 76 7 76 -31 0 -142 7 -247 15 -104 8 -269 17 -365 20 l-175 5
-53 -61z"/>
<path d="M7725 6780 c-3 -5 -1 -10 4 -10 6 0 11 5 11 10 0 6 -2 10 -4 10 -3 0
-8 -4 -11 -10z"/>
<path d="M7315 6760 c3 -5 8 -10 11 -10 2 0 4 5 4 10 0 6 -5 10 -11 10 -5 0
-7 -4 -4 -10z"/>
<path d="M5720 6720 c0 -12 85 -20 116 -10 22 6 25 9 9 11 -53 6 -125 5 -125
-1z"/>
<path d="M5465 6710 c-4 -6 8 -10 29 -10 19 0 38 5 41 10 4 6 -8 10 -29 10
-19 0 -38 -4 -41 -10z"/>
<path d="M4109 5283 c-13 -16 -12 -17 4 -4 16 13 21 21 13 21 -2 0 -10 -8 -17
-17z"/>
<path d="M4155 5277 c-40 -29 -69 -59 -91 -94 -17 -26 -16 -26 13 5 17 17 36
32 42 32 6 0 11 6 11 14 0 14 27 31 43 27 5 -1 5 4 1 10 -5 8 -2 10 8 7 9 -4
15 0 15 8 0 18 -6 17 -42 -9z"/>
<path d="M4266 5261 c-3 -4 -19 -11 -36 -15 -19 -3 -48 -23 -71 -48 -41 -44
-54 -75 -18 -42 21 19 21 18 -1 -24 -12 -24 -21 -45 -19 -47 2 -2 17 8 32 21
15 13 25 24 21 24 -4 0 1 9 10 19 10 11 24 17 31 15 7 -3 28 9 46 27 l33 32
-30 -7 c-16 -4 -24 -3 -19 1 23 18 47 53 37 53 -6 0 -13 -4 -16 -9z"/>
<path d="M4328 5193 c7 -3 16 -2 19 1 4 3 -2 6 -13 5 -11 0 -14 -3 -6 -6z"/>
<path d="M4770 5112 c0 -4 9 -13 20 -20 22 -13 27 -3 8 16 -14 14 -28 16 -28
4z"/>
<path d="M7940 4882 c0 -24 8 -32 26 -25 22 8 17 43 -6 43 -13 0 -20 -7 -20
-18z"/>
<path d="M8437 4893 c-4 -3 -7 -19 -7 -35 0 -23 4 -28 24 -28 21 0 24 4 23 35
-1 25 -5 35 -17 35 -9 0 -20 -3 -23 -7z"/>
<path d="M8153 4873 c-36 -7 -27 -23 12 -23 24 0 35 5 35 15 0 15 -6 16 -47 8z"/>
<path d="M8262 4859 c1 -13 8 -23 13 -21 15 3 12 35 -3 40 -9 3 -13 -3 -10
-19z"/>
<path d="M8566 4864 c-9 -22 -8 -24 9 -24 8 0 15 9 15 20 0 24 -15 27 -24 4z"/>
<path d="M8864 4796 c-10 -8 -16 -17 -12 -21 8 -8 85 13 93 25 10 16 -59 12
-81 -4z"/>
<path d="M4718 4479 c-46 -23 -58 -34 -58 -53 0 -40 22 -50 80 -36 49 12 108
48 83 51 -7 1 -19 2 -25 3 -14 2 -12 34 4 54 18 21 -23 12 -84 -19z"/>
<path d="M4960 4393 c0 -27 -3 -59 -6 -73 -2 -14 7 -1 21 29 26 55 25 91 -1
91 -10 0 -14 -13 -14 -47z"/>
<path d="M4690 4286 c0 -2 7 -22 15 -45 8 -23 12 -48 9 -56 -10 -24 4 -17 35
17 34 38 30 63 -11 77 -32 11 -48 14 -48 7z"/>
<path d="M3630 4072 c-14 -9 -31 -23 -39 -31 -13 -11 -10 -12 19 -6 38 8 80
32 80 46 0 14 -33 9 -60 -9z"/>
<path d="M4901 4004 c0 -11 3 -14 6 -6 3 7 2 16 -1 19 -3 4 -6 -2 -5 -13z"/>
<path d="M7740 3500 c0 -5 -7 -10 -16 -10 -8 0 -13 -4 -10 -9 4 -5 17 -4 31 2
28 13 33 27 10 27 -8 0 -15 -4 -15 -10z"/>
<path d="M7242 3343 c2 -10 11 -19 21 -21 24 -5 21 15 -4 28 -18 10 -20 9 -17
-7z"/>
<path d="M8231 3274 c0 -11 3 -14 6 -6 3 7 2 16 -1 19 -3 4 -6 -2 -5 -13z"/>
<path d="M9580 3199 c0 -5 5 -7 11 -3 6 3 15 0 20 -7 4 -7 11 -10 14 -7 11 11
-5 28 -26 28 -10 0 -19 -5 -19 -11z"/>
<path d="M8729 3134 c-12 -14 -11 -16 5 -13 11 2 21 10 24 17 5 17 -13 15 -29
-4z"/>
<path d="M9632 3128 c6 -18 28 -21 28 -4 0 9 -7 16 -16 16 -9 0 -14 -5 -12
-12z"/>
<path d="M8468 2708 c-35 -12 -36 -41 -2 -57 24 -11 26 -16 21 -57 -3 -33 -1
-47 9 -51 8 -3 14 -19 14 -37 1 -18 11 -44 25 -61 l24 -29 10 25 c5 14 23 41
40 60 52 56 34 102 -35 92 -39 -6 -45 3 -34 53 8 34 7 41 -11 57 -24 19 -24
19 -61 5z"/>
<path d="M8560 2676 c0 -2 9 -6 20 -9 11 -3 20 -1 20 4 0 5 -9 9 -20 9 -11 0
-20 -2 -20 -4z"/>
<path d="M2236 2221 c11 -10 28 -16 39 -13 17 3 18 2 5 -8 -13 -10 -12 -11 3
-6 10 3 24 6 29 6 21 0 2 10 -46 24 -46 14 -47 14 -30 -3z"/>
<path d="M10102 2210 c1 -36 23 -87 57 -130 l21 -25 0 38 c0 43 -22 92 -45
101 -8 3 -19 16 -24 28 -8 20 -9 19 -9 -12z"/>
<path d="M2185 2160 c3 -5 11 -10 17 -10 6 0 16 -7 22 -15 8 -11 19 -13 41 -6
l30 8 -32 7 c-18 4 -35 12 -38 17 -4 5 -15 9 -26 9 -11 0 -17 -4 -14 -10z"/>
<path d="M9355 2050 c-3 -5 1 -10 10 -10 9 0 13 5 10 10 -3 6 -8 10 -10 10 -2
0 -7 -4 -10 -10z"/>
<path d="M2477 1944 c6 -15 23 -19 23 -5 0 5 -7 11 -14 14 -10 4 -13 1 -9 -9z"/>
<path d="M9338 1943 c7 -3 16 -2 19 1 4 3 -2 6 -13 5 -11 0 -14 -3 -6 -6z"/>
<path d="M9265 1869 c-48 -25 -71 -46 -62 -56 4 -3 20 5 35 19 15 14 44 31 65
38 20 6 37 13 37 16 0 11 -39 2 -75 -17z"/>
<path d="M2076 1853 c-4 -4 5 -42 19 -75 8 -20 54 -33 68 -19 6 6 -7 25 -37
53 -25 25 -48 43 -50 41z"/>
<path d="M9345 1841 c-59 -15 -145 -74 -145 -101 0 -16 9 -12 53 23 51 41 115
68 182 77 l50 7 -55 1 c-30 0 -68 -3 -85 -7z"/>
<path d="M9715 1800 c-3 -5 3 -10 14 -10 12 0 21 5 21 10 0 6 -6 10 -14 10 -8
0 -18 -4 -21 -10z"/>
<path d="M9768 1793 c6 -2 18 -2 25 0 6 3 1 5 -13 5 -14 0 -19 -2 -12 -5z"/>
<path d="M2260 1750 c0 -5 9 -10 21 -10 11 0 17 5 14 10 -3 6 -13 10 -21 10
-8 0 -14 -4 -14 -10z"/>
<path d="M9750 1751 c0 -14 155 -35 176 -23 15 9 12 12 -22 21 -47 13 -154 15
-154 2z"/>
<path d="M9820 1696 c16 -14 140 -31 140 -18 0 9 -94 32 -130 32 -21 0 -22 -2
-10 -14z"/>
<path d="M9850 1630 c6 -11 17 -20 25 -20 10 0 15 -10 15 -28 0 -15 9 -35 20
-45 11 -9 20 -23 20 -30 0 -7 8 -20 18 -29 23 -22 37 -40 51 -65 6 -12 20 -24
30 -28 12 -3 17 -12 14 -23 -3 -13 5 -21 31 -30 20 -7 40 -10 46 -7 5 3 10 -1
10 -9 0 -8 9 -16 21 -18 l21 -3 -21 -27 c-22 -28 -18 -39 13 -34 25 4 36 25
36 74 0 31 -4 42 -15 42 -8 0 -15 4 -15 9 0 5 7 14 15 21 16 13 21 50 7 50 -5
0 -7 14 -4 30 3 18 0 30 -7 30 -7 0 -9 9 -5 25 4 15 2 25 -5 25 -6 0 -11 14
-11 30 0 63 -91 107 -134 65 -18 -19 -40 -19 -91 0 -22 8 -53 14 -68 15 -25 0
-27 -2 -17 -20z m144 -50 c4 -5 7 -13 5 -18 -2 -6 -24 1 -49 14 l-45 24 40 -6
c22 -4 44 -10 49 -14z m13 -66 c-9 -9 -28 6 -21 18 4 6 10 6 17 -1 6 -6 8 -13
4 -17z m90 -91 c-9 -9 -20 -14 -24 -10 -3 4 2 14 13 21 25 19 33 10 11 -11z
m54 -26 c-29 -30 -39 -12 -10 19 14 15 25 20 27 14 3 -7 -5 -21 -17 -33z"/>
<path d="M3295 1015 c33 -31 60 -61 60 -68 0 -7 23 -15 55 -20 67 -10 164 -17
130 -10 -14 3 -38 15 -55 27 -16 12 -43 28 -60 36 -16 8 -40 23 -52 34 -13 11
-23 16 -23 13 0 -4 -22 4 -50 18 -27 14 -53 25 -57 25 -4 0 19 -25 52 -55z"/>
<path d="M3603 951 c-2 -25 2 -30 29 -35 47 -9 98 -7 98 4 0 6 -9 10 -21 10
-11 0 -35 11 -53 25 -42 32 -51 31 -53 -4z"/>
<path d="M1825 669 c-4 -6 -4 -13 -1 -16 8 -8 36 5 36 17 0 13 -27 13 -35 -1z"/>
<path d="M9535 74 c-33 -7 -103 -21 -155 -30 -242 -43 -242 -43 -60 -40 99 2
197 10 245 20 44 8 91 16 105 16 39 1 57 15 41 34 -16 19 -89 19 -176 0z"/>
</g>
</svg>
